<?xml version="1.0" encoding="UTF-8"?>
<svg version="1.1" xmlns="http://www.w3.org/2000/svg" width="1080" height="1080">
<path d="M0 0 C356.4 0 712.8 0 1080 0 C1080 356.4 1080 712.8 1080 1080 C723.6 1080 367.2 1080 0 1080 C0 723.6 0 367.2 0 0 Z " fill="#FEFEFE" transform="translate(0,0)"/>
<path d="M0 0 C3.97334288 3.5993812 7.70725673 7.68538879 9 13 C9.125 15.8125 9.125 15.8125 9 18 C10.65 18 12.3 18 14 18 C14 20.97 14 23.94 14 27 C21.59 27 29.18 27 37 27 C38.60067449 31.80202347 39.55273658 36.03305405 40.1484375 40.984375 C40.29439362 42.13113205 40.29439362 42.13113205 40.44329834 43.30105591 C40.6510601 44.93588463 40.85627225 46.57103907 41.05914307 48.20648193 C41.59377775 52.51176332 42.14809731 56.8144945 42.703125 61.1171875 C42.81306793 61.97156403 42.92301086 62.82594055 43.0362854 63.70620728 C43.95428504 70.7806554 45.00268572 77.83003212 46.125 84.875 C48.03353569 96.88326917 49.57101519 108.92606617 51 121 C52.30988892 121.03758423 52.30988892 121.03758423 53.64624023 121.07592773 C56.87602552 121.17087709 60.10564154 121.27012029 63.33520508 121.37231445 C64.73489199 121.41571434 66.13463359 121.45738564 67.53442383 121.49731445 C69.54261495 121.55489445 71.55061149 121.61914 73.55859375 121.68359375 C74.76829834 121.72025146 75.97800293 121.75690918 77.22436523 121.79467773 C80 122 80 122 81 123 C81.07205511 124.68608966 81.08386068 126.37500659 81.0625 128.0625 C81.05347656 128.98160156 81.04445313 129.90070313 81.03515625 130.84765625 C81.01775391 131.91306641 81.01775391 131.91306641 81 133 C82.9490625 132.9690625 82.9490625 132.9690625 84.9375 132.9375 C86.29165633 132.91600546 87.64756083 132.92851801 89 133 C90 134 90 134 90.11352539 136.31665039 C90.10828857 137.31688232 90.10305176 138.31711426 90.09765625 139.34765625 C90.09443359 140.42724609 90.09121094 141.50683594 90.08789062 142.61914062 C90.07951172 143.75544922 90.07113281 144.89175781 90.0625 146.0625 C90.05798828 147.20267578 90.05347656 148.34285156 90.04882812 149.51757812 C90.03699747 152.34510351 90.0205141 155.1725264 90 158 C91.1446875 158.37125 91.1446875 158.37125 92.3125 158.75 C95.34474981 160.16034875 96.27367443 161.18157754 98 164 C98.36800098 166.19892883 98.36800098 166.19892883 98.35835266 168.63012695 C98.36221985 169.55540192 98.36608704 170.48067688 98.37007141 171.43399048 C98.35921005 172.44190643 98.34834869 173.44982239 98.3371582 174.48828125 C98.3377121 175.55533295 98.33826599 176.62238464 98.33883667 177.72177124 C98.33857673 180.03859382 98.3316935 182.3554229 98.31899452 184.67221069 C98.30065992 188.33674947 98.30327117 192.00071521 98.3120575 195.6652832 C98.33390514 206.08391115 98.32286451 216.50232021 98.28491211 226.92089844 C98.26316739 233.29286859 98.27030134 239.66427479 98.2953701 246.03622437 C98.29897212 248.4667557 98.29125568 250.89733064 98.27211952 253.32778931 C98.24590284 256.72306962 98.25616845 260.11643027 98.2746582 263.51171875 C98.25772415 264.5196347 98.2407901 265.52755066 98.2233429 266.56600952 C98.25820496 269.18285714 98.33440596 271.46884124 99 274 C101.78237044 276.63470859 101.78237044 276.63470859 105 278 C108.57747156 281.8104232 110.33585588 285.77934227 110.625 291 C110.3308421 296.31118422 108.49655764 300.0378433 105 304 C101.23799883 307.07102137 99.8987475 308 95 308 C94.94608007 306.20866022 94.90724429 304.41686101 94.875 302.625 C94.85179687 301.62726563 94.82859375 300.62953125 94.8046875 299.6015625 C95 297 95 297 97 295 C97.33333333 291.5 97.33333333 291.5 97 288 C95.11499729 285.68436913 95.11499729 285.68436913 92 285.75 C88.88500271 285.68436913 88.88500271 285.68436913 87 288 C86.5832448 290.95788569 86.5832448 290.95788569 87 294 C87.49757813 294.44085937 87.99515625 294.88171875 88.5078125 295.3359375 C90.66294863 297.73930921 90.29916521 299.52365239 90.1875 302.6875 C90.16042969 303.68136719 90.13335937 304.67523437 90.10546875 305.69921875 C90.07066406 306.45847656 90.03585937 307.21773437 90 308 C86.07488565 308 83.99312753 307.88776626 81.01171875 305.22265625 C75.79629057 299.25136891 74.64815668 295.94871669 74.71484375 287.984375 C75.09293463 284.02736906 76.35898861 281.9344571 79 279 C79.680625 278.21625 80.36125 277.4325 81.0625 276.625 C83 275 83 275 86 275 C86 245.96 86 216.92 86 187 C83.36 187 80.72 187 78 187 C78.01080849 188.13492889 78.01080849 188.13492889 78.02183533 189.29278564 C78.06818208 198.10125052 77.78043892 206.87388593 77.37890625 215.671875 C77.31392437 217.13063038 77.24906153 218.58939107 77.18431091 220.04815674 C77.04928102 223.07354013 76.91199203 226.09881071 76.77319336 229.12402344 C76.59532111 233.0076018 76.42457087 236.89145869 76.25558567 240.77543259 C76.12418248 243.77287884 75.98844286 246.7701168 75.85142326 249.7673111 C75.78653195 251.2010351 75.72315776 252.63482858 75.66131783 254.06868744 C75.57503372 256.05738595 75.48214944 258.04579485 75.38891602 260.03417969 C75.33784195 261.16523132 75.28676788 262.29628296 75.23414612 263.46160889 C75 266 75 266 74 267 C71.69 267 69.38 267 67 267 C67 273.27 67 279.54 67 286 C59.74 286 52.48 286 45 286 C45 293.92 45 301.84 45 310 C51.86612807 309.96041531 51.86612807 309.96041531 58.73217773 309.90991211 C60.00750366 309.90616577 60.00750366 309.90616577 61.30859375 309.90234375 C62.62041626 309.89448853 62.62041626 309.89448853 63.95874023 309.88647461 C66 310 66 310 67 311 C67.07226502 312.85287502 67.0838122 314.70833878 67.0625 316.5625 C67.05347656 317.57441406 67.04445313 318.58632813 67.03515625 319.62890625 C67.01775391 320.80259766 67.01775391 320.80259766 67 322 C69.31 322 71.62 322 74 322 C74.02683987 324.97922593 74.04676037 327.95821295 74.0625 330.9375 C74.07087891 331.78763672 74.07925781 332.63777344 74.08789062 333.51367188 C74.09111328 334.32255859 74.09433594 335.13144531 74.09765625 335.96484375 C74.10289307 336.7137085 74.10812988 337.46257324 74.11352539 338.23413086 C74 340 74 340 73 341 C71.00041636 341.04080783 68.99954746 341.04254356 67 341 C67.01160156 341.78246094 67.02320313 342.56492187 67.03515625 343.37109375 C67.04417969 344.38300781 67.05320312 345.39492188 67.0625 346.4375 C67.07410156 347.44683594 67.08570313 348.45617187 67.09765625 349.49609375 C67 352 67 352 66 353 C63.36 353 60.72 353 58 353 C58 360.92 58 368.84 58 377 C60.97 377 63.94 377 67 377 C67.00185303 377.65814697 67.00370605 378.31629395 67.00561523 378.99438477 C67.40621387 389.00088139 70.66345558 397.637645 74.0625 406.9375 C74.91767822 409.29991474 75.76847605 411.66366086 76.61021423 414.03089905 C77.13047913 415.49193784 77.65868441 416.95018168 78.19606018 418.40501404 C79.58332635 422.27739967 80 424.77638793 80 429 C53.27 429 26.54 429 -1 429 C-2.1770312 424.2918752 -1.14173859 421.75985849 0.4921875 417.41015625 C1.03801813 415.88746215 1.58358208 414.36467243 2.12890625 412.84179688 C2.99466957 410.46399277 3.86549645 408.08821627 4.74267578 405.71459961 C8.3047084 396.02428414 10.98384605 387.43891072 11 377 C13.97 377 16.94 377 20 377 C20 369.08 20 361.16 20 353 C17.36 353 14.72 353 12 353 C11 352 11 352 10.90234375 349.49609375 C10.91974609 347.98208984 10.91974609 347.98208984 10.9375 346.4375 C10.94652344 345.42558594 10.95554688 344.41367187 10.96484375 343.37109375 C10.98224609 342.19740234 10.98224609 342.19740234 11 341 C10.030625 341.020625 9.06125 341.04125 8.0625 341.0625 C5 341 5 341 4 340 C3.90013025 337.15664952 3.86122119 334.34302837 3.875 331.5 C3.87113281 330.70207031 3.86726562 329.90414063 3.86328125 329.08203125 C3.87339233 323.12660767 3.87339233 323.12660767 5 322 C6.99958364 321.95919217 9.00045254 321.95745644 11 322 C10.98839844 321.21753906 10.97679687 320.43507813 10.96484375 319.62890625 C10.95582031 318.61699219 10.94679687 317.60507812 10.9375 316.5625 C10.92589844 315.55316406 10.91429687 314.54382813 10.90234375 313.50390625 C11 311 11 311 12 310 C13.56172745 309.91314397 15.12729344 309.89297781 16.69140625 309.90234375 C17.54162354 309.90484131 18.39184082 309.90733887 19.26782227 309.90991211 C20.89868774 309.92356812 20.89868774 309.92356812 22.5625 309.9375 C26.006875 309.958125 29.45125 309.97875 33 310 C33 302.08 33 294.16 33 286 C26.13387193 286.03958469 26.13387193 286.03958469 19.26782227 286.09008789 C17.99249634 286.09383423 17.99249634 286.09383423 16.69140625 286.09765625 C15.37958374 286.10551147 15.37958374 286.10551147 14.04125977 286.11352539 C12 286 12 286 11 285 C11 279.06 11 273.12 11 267 C-4.18 267 -19.36 267 -35 267 C-35 273.27 -35 279.54 -35 286 C-42.26 286 -49.52 286 -57 286 C-57 293.92 -57 301.84 -57 310 C-49.74 310 -42.48 310 -35 310 C-35 313.96 -35 317.92 -35 322 C-33.2984375 321.9690625 -33.2984375 321.9690625 -31.5625 321.9375 C-28 322 -28 322 -27 323 C-26.90013025 325.84335048 -26.86122119 328.65697163 -26.875 331.5 C-26.87113281 332.29792969 -26.86726563 333.09585937 -26.86328125 333.91796875 C-26.87339233 339.87339233 -26.87339233 339.87339233 -28 341 C-30.33297433 341.04092937 -32.66705225 341.04241723 -35 341 C-34.98839844 341.78246094 -34.97679687 342.56492187 -34.96484375 343.37109375 C-34.95582031 344.38300781 -34.94679688 345.39492188 -34.9375 346.4375 C-34.92589844 347.44683594 -34.91429687 348.45617187 -34.90234375 349.49609375 C-35 352 -35 352 -36 353 C-38.31 353 -40.62 353 -43 353 C-43 360.59 -43 368.18 -43 376 C-40.69 376 -38.38 376 -36 376 C-34.44350218 377.55649782 -34.9075085 379.16816561 -34.8515625 381.34375 C-34.09819548 390.47869443 -30.46920635 398.94675253 -27.375 407.5 C-26.43785756 410.10360108 -25.50462837 412.70832759 -24.58242798 415.31726074 C-24.01169198 416.9309185 -23.43223027 418.54152279 -22.84310913 420.14855957 C-20.88763205 425.66289616 -20.88763205 425.66289616 -22 429 C-48.73 429 -75.46 429 -103 429 C-102.27441456 422.46973103 -101.75083678 418.56823102 -99.53125 412.76171875 C-99.03753246 411.43302739 -98.54405024 410.10424857 -98.05078125 408.77539062 C-97.27897585 406.73345456 -96.50231514 404.69353284 -95.72021484 402.65551758 C-92.73727793 394.83735139 -90.40159944 387.6435462 -90.12304688 379.17114258 C-90 377 -90 377 -89 376 C-86.69 376 -84.38 376 -82 376 C-82 368.41 -82 360.82 -82 353 C-84.31 353 -86.62 353 -89 353 C-90 352 -90 352 -90.09765625 349.49609375 C-90.08605469 348.48675781 -90.07445312 347.47742188 -90.0625 346.4375 C-90.05347656 345.42558594 -90.04445312 344.41367187 -90.03515625 343.37109375 C-90.02355469 342.58863281 -90.01195312 341.80617188 -90 341 C-92.31 341 -94.62 341 -97 341 C-97 334.73 -97 328.46 -97 322 C-94.69 322 -92.38 322 -90 322 C-90 318.04 -90 314.08 -90 310 C-82.74 310 -75.48 310 -68 310 C-68 302.08 -68 294.16 -68 286 C-75.26 286 -82.52 286 -90 286 C-90 279.73 -90 273.46 -90 267 C-92.31 267 -94.62 267 -97 267 C-98.72237526 265.27762474 -98.27142263 262.9443397 -98.38891602 260.58837891 C-98.44890274 259.42851471 -98.50888947 258.26865051 -98.57069397 257.07363892 C-98.66138405 255.16933609 -98.66138405 255.16933609 -98.75390625 253.2265625 C-98.81907944 251.91908051 -98.88425262 250.61159851 -98.95140076 249.26449585 C-99.08974694 246.47855498 -99.22464824 243.69247346 -99.35717773 240.90625 C-99.52455347 237.39285937 -99.70019335 233.87994345 -99.87833595 230.3670845 C-100.62486055 215.57516971 -101.24592265 200.81476049 -101 186 C-103.97 186 -106.94 186 -110 186 C-110.00829717 197.40493551 -109.9845392 208.80930881 -109.9197216 220.214077 C-109.89063474 225.50969964 -109.87264044 230.80487847 -109.87988281 236.10058594 C-109.88646452 241.21023528 -109.86405706 246.31900675 -109.82144547 251.42847443 C-109.81029356 253.37889736 -109.80963281 255.3294091 -109.81957626 257.27983856 C-109.83171281 260.01012708 -109.80673636 262.7377211 -109.77294922 265.46777344 C-109.78517014 266.27625732 -109.79739105 267.08474121 -109.8099823 267.91772461 C-109.8184379 270.45782233 -109.8184379 270.45782233 -109 274 C-106.18375328 276.51481761 -106.18375328 276.51481761 -103 278 C-99.81357256 280.84555381 -98.25199161 283.62257218 -97.48046875 287.83984375 C-97.12835691 294.33344125 -98.00812907 298.53008254 -102.34765625 303.44140625 C-105.97031601 306.85852503 -107.97247267 308 -113 308 C-113.08142927 306.2507786 -113.13938541 304.50045458 -113.1875 302.75 C-113.22230469 301.77546875 -113.25710937 300.8009375 -113.29296875 299.796875 C-112.95607183 296.58063238 -111.98130437 295.46876814 -110 293 C-110.06845374 289.83668535 -110.06845374 289.83668535 -111 287 C-113.78863007 285.60568496 -115.92078868 285.74339906 -119 286 C-121.33296251 288.82717213 -121.33296251 288.82717213 -120.75 292.0625 C-120.2406756 295.099459 -120.2406756 295.099459 -118 297 C-117.8046875 299.6015625 -117.8046875 299.6015625 -117.875 302.625 C-117.89304687 303.62789062 -117.91109375 304.63078125 -117.9296875 305.6640625 C-117.96449219 306.82035156 -117.96449219 306.82035156 -118 308 C-121.02376458 308.27440795 -122.57462308 308.27285439 -125.16796875 306.609375 C-126.16763672 305.68898438 -126.16763672 305.68898438 -127.1875 304.75 C-127.86167969 304.14671875 -128.53585938 303.5434375 -129.23046875 302.921875 C-133.49221421 298.29322431 -133.42771281 294.0136619 -133.31640625 287.9140625 C-132.74380621 282.64048686 -130.21801959 280.07301726 -126.375 276.6875 C-124 275 -124 275 -122 274 C-121.99918285 273.14881702 -121.99918285 273.14881702 -121.99834919 272.28043842 C-121.98337599 258.46720786 -121.94059141 244.65430394 -121.86790943 230.84125233 C-121.83360105 224.16127337 -121.80852342 217.48158481 -121.80444336 210.80151367 C-121.80016878 204.3563121 -121.77177474 197.91162891 -121.72656822 191.46658897 C-121.7135665 189.00622259 -121.70929493 186.54579425 -121.71384621 184.08539772 C-121.71873284 180.6420539 -121.69274284 177.20023645 -121.65942383 173.75708008 C-121.66804947 172.73712448 -121.67667511 171.71716888 -121.68556213 170.66630554 C-121.60888346 165.9472335 -121.5259116 163.70881959 -118.64628601 159.8276825 C-116 158 -116 158 -113 158 C-113.00785522 156.91730835 -113.00785522 156.91730835 -113.01586914 155.81274414 C-113.03657358 152.56267151 -113.04963918 149.31261272 -113.0625 146.0625 C-113.07087891 144.92619141 -113.07925781 143.78988281 -113.08789062 142.61914062 C-113.09272461 140.99975586 -113.09272461 140.99975586 -113.09765625 139.34765625 C-113.10551147 137.84730835 -113.10551147 137.84730835 -113.11352539 136.31665039 C-113 134 -113 134 -112 133 C-109.32941149 132.85884839 -106.67567762 132.95752893 -104 133 C-104.01160156 132.28972656 -104.02320312 131.57945312 -104.03515625 130.84765625 C-104.04417969 129.92855469 -104.05320312 129.00945312 -104.0625 128.0625 C-104.07410156 127.14597656 -104.08570312 126.22945312 -104.09765625 125.28515625 C-104 123 -104 123 -103 122 C-100.85441173 121.91224395 -98.70595579 121.89304781 -96.55859375 121.90234375 C-95.25341797 121.90556641 -93.94824219 121.90878906 -92.60351562 121.91210938 C-91.2148431 121.92046599 -89.82617123 121.92893095 -88.4375 121.9375 C-87.04492344 121.94251334 -85.65234519 121.94707653 -84.25976562 121.95117188 C-80.8398013 121.96300566 -77.41992156 121.9794912 -74 122 C-73.94577881 121.42822021 -73.89155762 120.85644043 -73.83569336 120.26733398 C-72.02450781 101.69323951 -69.34093983 83.28386917 -66.51342773 64.84155273 C-66.21569455 62.89180836 -65.9182449 60.94202067 -65.62109375 58.9921875 C-65.4772374 58.05248611 -65.33338104 57.11278473 -65.18516541 56.14460754 C-64.18711419 49.52415641 -63.34474395 42.89697126 -62.71177673 36.23117065 C-62.32757742 32.52789419 -61.71366233 30.42732467 -60 27 C-52.41 27 -44.82 27 -37 27 C-37 24.03 -37 21.06 -37 18 C-35.35 17.67 -33.7 17.34 -32 17 C-31.9071875 15.2365625 -31.9071875 15.2365625 -31.8125 13.4375 C-31.01414382 7.17262164 -27.84968531 3.4643342 -23 -0.375 C-15.75430231 -4.29975291 -7.13007991 -4.22212575 0 0 Z " fill="#312758" transform="translate(193,327)"/>
<path d="M0 0 C0.84835419 -0.00671722 1.69670837 -0.01343445 2.57077026 -0.02035522 C5.35428858 -0.03923368 8.13756436 -0.04325458 10.92114258 -0.04541016 C12.87396846 -0.05184622 14.82679339 -0.05857517 16.77961731 -0.06558228 C20.86726107 -0.0775305 24.95482049 -0.08126574 29.04248047 -0.08007812 C34.24937494 -0.07987533 39.4557212 -0.10714763 44.66248608 -0.14162254 C48.69570845 -0.16399569 52.7288012 -0.16791245 56.76207924 -0.16685867 C58.67999468 -0.16920013 60.59791449 -0.1779404 62.51576805 -0.19352341 C81.03510332 -0.32988693 95.79701606 2.72548899 109.76489258 15.75927734 C119.83893133 26.54932216 124.44813282 39.5522043 124.40232849 54.12367249 C124.40756517 54.96536859 124.41280185 55.8070647 124.41819721 56.67426676 C124.43309217 59.46966139 124.43390004 62.26487128 124.43457031 65.06030273 C124.442199 67.075056 124.45062772 69.08980636 124.45979309 71.10455322 C124.48167811 76.5615378 124.49052922 82.01846636 124.49561954 87.47548985 C124.49927097 90.89136045 124.50551519 94.30721655 124.51262093 97.72308159 C124.53709704 109.65890009 124.55016282 121.59467527 124.55371094 133.53051758 C124.55734215 144.62484285 124.58721274 155.7188908 124.62911552 166.81313139 C124.66390823 176.36253803 124.67926095 185.91185319 124.67995697 195.46132272 C124.68074688 201.1537906 124.68935335 206.84597586 124.71795464 212.53837776 C124.7442886 217.89919327 124.74625541 223.25949494 124.730299 228.62034607 C124.7284965 230.57612677 124.73506531 232.53193808 124.75111771 234.48765373 C124.8883793 252.31271125 122.16638146 267.36060137 110.12817383 281.29052734 C99.95044924 291.13739711 87.75716602 296.76009485 73.57617188 296.71044922 C72.66754395 296.71891876 71.75891602 296.72738831 70.82275391 296.7361145 C67.84498761 296.75934625 64.86774231 296.76050987 61.88989258 296.75927734 C59.80157774 296.76638781 57.71326483 296.77408809 55.62495422 296.78234863 C51.25658737 296.79576217 46.88840115 296.79737651 42.52001953 296.79150391 C36.94860788 296.78561425 31.37806955 296.81618431 25.80682659 296.85662079 C21.49568592 296.8825933 17.1847528 296.88536648 12.87354469 296.88172913 C10.82082744 296.88341178 8.7680997 296.89297102 6.71545982 296.91087341 C-4.4059994 296.99719757 -13.95346674 297.02017043 -23.87182617 291.29052734 C-24.70261185 290.8143396 -25.53339752 290.33815186 -26.38935852 289.84753418 C-38.49894587 282.55373262 -45.46434562 272.33502845 -49.94282627 259.13345528 C-50.99952724 254.7622754 -51.15936292 250.84725681 -51.14598083 246.37399292 C-51.15121751 245.49922054 -51.15645419 244.62444817 -51.16184956 243.72316754 C-51.17680168 240.80400499 -51.17755366 237.88501847 -51.17822266 234.96582031 C-51.18584747 232.86767788 -51.19427552 230.76953823 -51.20344543 228.67140198 C-51.22536818 222.97897099 -51.23418661 217.28659371 -51.23927188 211.59412527 C-51.24291871 208.03389572 -51.24916055 204.47368017 -51.25627327 200.91345596 C-51.28076208 188.48184849 -51.293818 176.0502827 -51.29736328 163.61865234 C-51.30099592 152.04943503 -51.33087351 140.48048342 -51.37276787 128.91134727 C-51.40751835 118.96457925 -51.42291256 109.01789907 -51.42360932 99.07107079 C-51.42440063 93.13666421 -51.43307257 87.20252827 -51.46160698 81.26818466 C-51.48786826 75.68169784 -51.48994764 70.0957045 -51.47395134 64.50918388 C-51.47214315 62.46667971 -51.47877016 60.42414664 -51.49477005 58.38170433 C-51.62220862 41.04729529 -48.78317327 28.52957236 -36.87182617 15.29052734 C-26.35987985 5.21378899 -14.51943936 -0.01680653 0 0 Z " fill="#18375D" transform="translate(395.871826171875,395.70947265625)"/>
<path d="M0 0 C59.07 0 118.14 0 179 0 C177.85865514 27.39227662 177.85865514 27.39227662 177.28125 39.140625 C177.18517178 41.12637508 177.08909594 43.11212527 176.99314117 45.09788132 C176.76434067 49.82851097 176.5339266 54.55906135 176.30224609 59.28955078 C176.10588389 63.30231975 175.91184994 67.31519786 175.71875 71.328125 C175.65526367 72.64171997 175.59177734 73.95531494 175.52636719 75.30871582 C175.22494376 81.68733261 174.95422229 88.06462185 174.75390625 94.44726562 C174.71559692 95.65404968 174.6772876 96.86083374 174.63781738 98.10418701 C174.57071184 100.31140602 174.50899025 102.51880171 174.45495605 104.72637939 C174.12895236 115.57737203 172.99014587 126.10839541 172 137 C117.22 137 62.44 137 6 137 C5.34 119.84 4.68 102.68 4 85 C3.36026209 72.06515317 2.71305333 59.13265446 2.00842285 46.20147705 C1.64470594 39.51863641 1.28637474 32.83551035 0.93085098 26.15222931 C0.80872158 23.87218751 0.68381631 21.59231098 0.55856323 19.31243896 C0.48409031 17.92542049 0.40971353 16.53839685 0.33544922 15.15136719 C0.27042206 13.958078 0.2053949 12.76478882 0.13839722 11.53533936 C-0.01202227 7.6928926 0 3.84538985 0 0 Z " fill="#DB90BD" transform="translate(92,453)"/>
<path d="M0 0 C30.69 0 61.38 0 93 0 C100.00390944 45.52541139 100.00390944 45.52541139 102.44335938 63.0847168 C102.89299251 66.31683645 103.34871613 69.54806582 103.8046875 72.77929688 C104.09670188 74.8671389 104.38838359 76.95502748 104.6796875 79.04296875 C104.81398163 79.99366745 104.94827576 80.94436615 105.0866394 81.9238739 C105.20741852 82.7987294 105.32819763 83.6735849 105.45263672 84.57495117 C105.55889374 85.33668137 105.66515076 86.09841156 105.77462769 86.88322449 C106 89 106 89 106 93 C66.73 93 27.46 93 -13 93 C-11.85081384 78.06057992 -11.85081384 78.06057992 -10.89257812 71.39575195 C-10.78674911 70.63628769 -10.6809201 69.87682343 -10.57188416 69.09434509 C-10.22902656 66.64173926 -9.88036732 64.19000318 -9.53125 61.73828125 C-9.28819723 60.01290922 -9.04540407 58.28750061 -8.80285645 56.5620575 C-8.29778314 52.97564766 -7.78985671 49.38965737 -7.27978516 45.80395508 C-6.62557218 41.20354253 -5.97826456 36.60218901 -5.33298492 32.00051594 C-4.83458402 28.45122269 -4.33279548 24.90241496 -3.8299408 21.35375023 C-3.58971349 19.65577543 -3.35050163 17.95765665 -3.11231995 16.25939369 C-2.78077476 13.89939769 -2.44472711 11.54008686 -2.10742188 9.1809082 C-2.00973007 8.47916473 -1.91203827 7.77742126 -1.81138611 7.05441284 C-1.11430979 2.22861959 -1.11430979 2.22861959 0 0 Z " fill="#B0298E" transform="translate(135,357)"/>
<path d="M0 0 C38.85360825 0 38.85360825 0 46.4375 5.89453125 C46.953125 6.52746094 47.46875 7.16039062 48 7.8125 C48.53625 8.43769531 49.0725 9.06289063 49.625 9.70703125 C53.84830852 16.74987813 53.33420537 24.33794631 53.3125 32.3125 C53.32861328 33.48490234 53.34472656 34.65730469 53.36132812 35.86523438 C53.37045174 52.2056329 53.37045174 52.2056329 48.22583008 57.99731445 C43.82809922 62 43.82809922 62 41 62 C41 63.65 41 65.3 41 67 C41.721875 67.04125 42.44375 67.0825 43.1875 67.125 C46.99616244 68.3099172 49.00713708 70.66457679 51 74 C53.61435744 80.73087705 53.33034949 87.11734557 53.3125 94.25 C53.32861328 95.52230469 53.34472656 96.79460937 53.36132812 98.10546875 C53.36591059 106.98628064 52.92817318 115.53550519 47.4375 122.875 C34.10557126 134.99493522 17.36250304 130 0 130 C0 87.1 0 44.2 0 0 Z " fill="#030303" transform="translate(538,569)"/>
<path d="M0 0 C5.94 0 11.88 0 18 0 C24.73729355 64.79269539 24.73729355 64.79269539 24 85 C25.32 85 26.64 85 28 85 C28.03963867 83.99775391 28.07927734 82.99550781 28.12011719 81.96289062 C28.92239623 62.17107076 30.05262237 42.45935681 32.0625 22.75 C32.15035767 21.88125244 32.23821533 21.01250488 32.32873535 20.11743164 C32.57990139 17.6558407 32.83692305 15.19496955 33.09765625 12.734375 C33.17365555 12.00696106 33.24965485 11.27954712 33.32795715 10.53009033 C33.68705795 7.24785155 34.19642489 4.21430045 35 1 C44.24 1 53.48 1 63 1 C69.57446809 59.08510638 69.57446809 59.08510638 69 85 C70.32 85 71.64 85 73 85 C73.03963867 84.02804687 73.07927734 83.05609375 73.12011719 82.0546875 C73.93170097 62.62834608 75.08206276 43.28284848 77.0625 23.9375 C77.15035767 23.07552002 77.23821533 22.21354004 77.32873535 21.32543945 C77.58094706 18.87145594 77.83767746 16.41801579 78.09765625 13.96484375 C78.17365555 13.24457504 78.24965485 12.52430634 78.32795715 11.7822113 C78.75988943 7.81646495 79.34292444 3.94245336 80 0 C85.94 0 91.88 0 98 0 C97.24348623 10.20162933 96.02966224 20.31524489 94.75 30.4609375 C94.52944219 32.22301009 94.30906791 33.98510565 94.08886719 35.7472229 C93.62978168 39.41679898 93.1690586 43.08616427 92.70703125 46.75537109 C92.11607733 51.44887754 91.52840136 56.1427871 90.9418335 60.83684349 C90.48814163 64.46583401 90.03316594 68.09466263 89.57775879 71.72343826 C89.3605836 73.45449794 89.14370167 75.18559444 88.92712402 76.91672897 C88.62452706 79.33315241 88.32030793 81.74936615 88.015625 84.16552734 C87.92728394 84.87316223 87.83894287 85.58079712 87.7479248 86.30987549 C87.25166013 90.22964113 86.65019387 94.09883678 86 98 C76.1 98 66.2 98 56 98 C55.44509934 92.08191997 54.89265883 86.1637026 54.34594727 80.24487305 C54.16012445 78.2405155 53.97299638 76.23627845 53.78442383 74.23217773 C52.19114037 57.28389053 50.7680399 40.34975759 50.9375 23.3125 C50.94201172 22.39662109 50.94652344 21.48074219 50.95117188 20.53710938 C50.9625806 18.358042 50.98048648 16.17900987 51 14 C49.68 14 48.36 14 47 14 C46.97468956 15.03861176 46.97468956 15.03861176 46.9488678 16.09820557 C46.46406832 34.73793931 45.19203447 53.18636597 43.4375 71.75 C43.2004589 74.32024685 42.96412819 76.89055931 42.72851562 79.4609375 C42.16175902 85.64156746 41.58065798 91.82059916 41 98 C31.43 98 21.86 98 12 98 C9.08684788 76.95012664 6.31590746 55.88394521 3.66531372 34.79931641 C3.34691848 32.26760957 3.02748173 29.7360335 2.70700073 27.20458984 C2.25321713 23.61596176 1.8036896 20.02682661 1.35546875 16.4375 C1.21820374 15.3556543 1.08093872 14.27380859 0.93951416 13.15917969 C0.81534119 12.15661133 0.69116821 11.15404297 0.56323242 10.12109375 C0.4539592 9.2489624 0.34468597 8.37683105 0.23210144 7.47827148 C-0.00045141 4.99518004 0 2.49395749 0 0 Z " fill="#040404" transform="translate(839,439)"/>
<path d="M0 0 C5.61 0 11.22 0 17 0 C17 43.23 17 86.46 17 131 C7.43 131 -2.14 131 -12 131 C-14.1875 120.0625 -14.1875 120.0625 -14.92626953 116.34008789 C-16.01429365 110.86243501 -17.12180277 105.39160754 -18.3046875 99.93359375 C-21.56314138 84.69896993 -23.58296328 69.43441522 -25.31712341 53.96958923 C-25.81032182 49.588765 -26.34550195 45.21540347 -26.9140625 40.84375 C-27.12651611 39.20901733 -27.12651611 39.20901733 -27.34326172 37.54125977 C-27.60466519 35.54652845 -27.86906284 33.55218598 -28.13720703 31.55834961 C-28.81394827 26.3200298 -29.12327554 21.28235699 -29 16 C-30.32 16 -31.64 16 -33 16 C-32.90041992 17.37236061 -32.90041992 17.37236061 -32.79882812 18.77244568 C-32.17599637 27.6711331 -31.75668312 36.5547045 -31.5 45.47265625 C-31.45926674 46.810998 -31.41824385 48.14933097 -31.37695312 49.48765564 C-31.26988132 52.97571405 -31.16570402 56.4638516 -31.0625 59.95202637 C-30.87843839 66.16734113 -30.69053103 72.38253666 -30.5 78.59765625 C-30.46952985 79.59826836 -30.46952985 79.59826836 -30.43844414 80.61909485 C-30.14826134 90.09184133 -29.79117144 99.55863729 -29.31018066 109.0236969 C-28.94497175 116.35891052 -28.9250629 123.656164 -29 131 C-34.61 131 -40.22 131 -46 131 C-46 88.1 -46 45.2 -46 1 C-37.09 1 -28.18 1 -19 1 C-13.21420593 21.57171224 -9.54421075 42.20363619 -6.88623047 63.3828125 C-5.34080107 75.66917538 -3.52859016 87.89382108 -1.5234375 100.11328125 C-1.22373047 101.96179688 -1.22373047 101.96179688 -0.91796875 103.84765625 C-0.65149536 105.4565271 -0.65149536 105.4565271 -0.37963867 107.09790039 C-0.02946457 109.77476183 0.07309342 112.3048746 0 115 C1.32 115 2.64 115 4 115 C3.94465088 114.32235596 3.88930176 113.64471191 3.83227539 112.9465332 C0.78586728 75.3466928 -0.2537016 37.71697142 0 0 Z " fill="#050505" transform="translate(584,406)"/>
<path d="M0 0 C22.44 0 44.88 0 68 0 C68 9.9 68 19.8 68 30 C61.73 30 55.46 30 49 30 C49 71.25 49 112.5 49 155 C38.77 155 28.54 155 18 155 C18 113.75 18 72.5 18 30 C12.06 30 6.12 30 0 30 C0 20.1 0 10.2 0 0 Z " fill="#87D298" transform="translate(419,461)"/>
<path d="M0 0 C10.23 0 20.46 0 31 0 C31 51.15 31 102.3 31 155 C20.77 155 10.54 155 0 155 C0 103.85 0 52.7 0 0 Z " fill="#84CE96" transform="translate(381,461)"/>
<path d="M0 0 C2.83619207 1.41809603 3.02129466 3.09544025 4.1640625 6.0234375 C4.76347656 7.55484375 4.76347656 7.55484375 5.375 9.1171875 C5.7875 10.19226563 6.2 11.26734375 6.625 12.375 C7.04523438 13.44234375 7.46546875 14.5096875 7.8984375 15.609375 C11 23.60496144 11 23.60496144 11 27 C11.99 27 12.98 27 14 27 C14.11214844 26.29488281 14.22429687 25.58976562 14.33984375 24.86328125 C15.06314908 21.72610488 16.19457691 19.09872094 17.5625 16.1875 C18.01753906 15.21167969 18.47257812 14.23585938 18.94140625 13.23046875 C19.46541016 12.12638672 19.46541016 12.12638672 20 11 C23.21524305 12.40844718 25.32183868 14.10344786 27.75 16.625 C28.36359375 17.25664062 28.9771875 17.88828125 29.609375 18.5390625 C30.29773438 19.26222656 30.29773438 19.26222656 31 20 C31.598125 19.401875 32.19625 18.80375 32.8125 18.1875 C35.40625 15.59375 35.40625 15.59375 38 13 C39.65 13.66 41.3 14.32 43 15 C43.12117188 14.38511719 43.24234375 13.77023437 43.3671875 13.13671875 C43.53476563 12.32847656 43.70234375 11.52023437 43.875 10.6875 C44.03742188 9.88699219 44.19984375 9.08648437 44.3671875 8.26171875 C45 6 45 6 47 3 C47.29245605 3.7520874 47.58491211 4.5041748 47.88623047 5.27905273 C49.2086733 8.66804198 50.54167967 12.05277636 51.875 15.4375 C52.33519531 16.62150391 52.79539062 17.80550781 53.26953125 19.02539062 C53.71425781 20.15009766 54.15898437 21.27480469 54.6171875 22.43359375 C55.02565918 23.47572021 55.43413086 24.51784668 55.85498047 25.59155273 C56.76247554 28.13780743 56.76247554 28.13780743 59 29 C59.18175781 27.19015625 59.18175781 27.19015625 59.3671875 25.34375 C59.53615881 23.72913529 59.70544656 22.11455368 59.875 20.5 C59.95363281 19.70851563 60.03226562 18.91703125 60.11328125 18.1015625 C60.66655089 12.90933976 61.6248235 8.03846179 63 3 C65.29648357 5.89585905 67.04347557 8.8172031 68.6875 12.125 C69.12449219 12.99382812 69.56148437 13.86265625 70.01171875 14.7578125 C71 17 71 17 71 19 C71.66 19 72.32 19 73 19 C73.4021875 17.2984375 73.4021875 17.2984375 73.8125 15.5625 C74.204375 14.386875 74.59625 13.21125 75 12 C78 11 78 11 79.82421875 11.77734375 C81.54947917 12.8515625 83.27473958 13.92578125 85 15 C85.57301844 21.87622128 83.74562466 26.37485769 79.59765625 31.8515625 C69.23373524 43.35576822 51.75664112 47.13460067 37 49 C36.29520508 49.09023438 35.59041016 49.18046875 34.86425781 49.2734375 C6.45613798 52.80506433 -28.0729652 54.05041973 -53.01953125 37.5625 C-59.53583246 32.42143395 -62.82504339 26.61590099 -64.875 18.5625 C-63.56855336 13.24339581 -59.99696442 11.49664115 -55.6015625 8.50390625 C-53 7 -53 7 -51 7 C-49.22610722 9.06904965 -47.5715553 11.13761169 -45.9375 13.3125 C-45.47794922 13.90740234 -45.01839844 14.50230469 -44.54492188 15.11523438 C-42.56179131 17.72155134 -41.04263314 19.87210058 -40 23 C-35.35306974 18.62880382 -32.17664783 13.84979168 -28.76953125 8.44921875 C-28.18558594 7.64097656 -27.60164063 6.83273437 -27 6 C-26.34 6 -25.68 6 -25 6 C-23.60264374 8.93677783 -22.20736033 11.87453596 -20.8125 14.8125 C-20.19556274 16.10969971 -20.19556274 16.10969971 -19.56616211 17.43310547 C-16.93892731 22.97148843 -14.39063212 28.53078538 -11.97265625 34.1640625 C-11.13525323 36.17445653 -11.13525323 36.17445653 -9 37 C-8.7525 35.865625 -8.505 34.73125 -8.25 33.5625 C-5.74411655 22.31268281 -3.16074946 11.08656818 0 0 Z " fill="#F7F8E2" transform="translate(171,486)"/>
<path d="M0 0 C5.9791834 5.45925441 7.74000349 12.05055676 8.25985718 19.94732666 C8.38453873 24.71777155 8.337936 29.48652486 8.29296875 34.2578125 C8.28736391 36.01471594 8.28309801 37.77162411 8.28010559 39.52853394 C8.26872665 44.12183898 8.23932043 48.7148532 8.20599365 53.30804443 C8.17514178 58.00740629 8.16156814 62.70681576 8.14648438 67.40625 C8.11444307 76.6043141 8.06173308 85.80208721 8 95 C2.06 95 -3.88 95 -10 95 C-10 91.7 -10 88.4 -10 85 C-10.99 85 -11.98 85 -13 85 C-13.226875 85.9075 -13.45375 86.815 -13.6875 87.75 C-15.41923863 92.0381147 -17.91979573 93.95989786 -22 96 C-28.45373238 96.50238635 -34.55942504 96.94441685 -40 93 C-46.13202366 87.21837769 -47.1829708 79.06594262 -47.4375 71 C-47.2200112 61.90501362 -44.67733608 54.38701712 -38 48 C-29.93217565 41.98963286 -20.28966626 38.64258375 -11 35 C-10.94197302 31.56257082 -10.90639514 28.12526747 -10.875 24.6875 C-10.85824219 23.71103516 -10.84148438 22.73457031 -10.82421875 21.72851562 C-10.81777344 20.79072266 -10.81132813 19.85292969 -10.8046875 18.88671875 C-10.79421387 18.02264404 -10.78374023 17.15856934 -10.77294922 16.26831055 C-10.84909832 13.71819279 -10.84909832 13.71819279 -13 11 C-15.04743518 10.26917046 -15.04743518 10.26917046 -17.375 10.0625 C-18.14585937 9.95035156 -18.91671875 9.83820313 -19.7109375 9.72265625 C-22.10936107 9.85070948 -22.10936107 9.85070948 -24.2421875 11.38671875 C-26.89273375 15.32719751 -26.67440711 19.09760129 -26.75 23.75 C-26.79447266 25.08224609 -26.79447266 25.08224609 -26.83984375 26.44140625 C-26.91035061 28.62711897 -26.95746234 30.81356411 -27 33 C-32.61 33 -38.22 33 -44 33 C-45.00633381 8.71381063 -45.00633381 8.71381063 -39 2 C-29.46812192 -6.16743585 -10.36518914 -7.50420934 0 0 Z " fill="#060606" transform="translate(989,442)"/>
<path d="M0 0 C5.40249525 3.83402888 7.93198338 7.43535405 9.23509216 13.86746216 C9.75583201 17.64176857 9.82789064 21.33584826 9.80883789 25.13623047 C9.80898392 25.9076387 9.80912994 26.67904694 9.8092804 27.47383118 C9.80858758 30.00602091 9.80082491 32.53813572 9.79296875 35.0703125 C9.79110233 36.8329362 9.78967948 38.59556041 9.78868103 40.35818481 C9.78487353 44.98430834 9.77505839 49.61040018 9.76397705 54.23651123 C9.75372488 58.96235729 9.74917527 63.68820851 9.74414062 68.4140625 C9.73343447 77.67709945 9.71585205 86.94010463 9.6953125 96.203125 C3.7553125 96.203125 -2.1846875 96.203125 -8.3046875 96.203125 C-8.3046875 92.903125 -8.3046875 89.603125 -8.3046875 86.203125 C-10.49890461 88.31897721 -12.45395968 90.39904474 -14.3046875 92.828125 C-16.98431887 96.01018726 -18.93603444 97.03711067 -23.07421875 97.5390625 C-29.71985754 97.62437237 -34.10870849 97.53310751 -39.3046875 93.203125 C-45.49908236 83.75952301 -45.25383059 73.11940317 -44.3046875 62.203125 C-42.59667868 54.57645461 -37.97192983 50.35127742 -31.62890625 46.09375 C-24.56365335 42.0754393 -17.0156628 38.7734501 -9.3046875 36.203125 C-9.18867746 32.59922836 -9.11750342 28.99581033 -9.0546875 25.390625 C-9.02117188 24.36646484 -8.98765625 23.34230469 -8.953125 22.28710938 C-8.94023438 21.30419922 -8.92734375 20.32128906 -8.9140625 19.30859375 C-8.89311523 18.40262451 -8.87216797 17.49665527 -8.85058594 16.56323242 C-9.10106796 14.06956357 -9.10106796 14.06956357 -11.10644531 12.4074707 C-14.30220485 10.65661755 -16.72748759 10.81288501 -20.3046875 11.203125 C-22.40827131 12.74575313 -23.14522909 13.88420817 -24.3046875 16.203125 C-24.45473723 17.5765885 -24.55306756 18.9559776 -24.62109375 20.3359375 C-24.66298828 21.14160156 -24.70488281 21.94726562 -24.74804688 22.77734375 C-24.78736328 23.61910156 -24.82667969 24.46085937 -24.8671875 25.328125 C-24.91037109 26.17761719 -24.95355469 27.02710938 -24.99804688 27.90234375 C-25.10422986 30.00240723 -25.20497247 32.10274448 -25.3046875 34.203125 C-30.9146875 34.203125 -36.5246875 34.203125 -42.3046875 34.203125 C-42.4137196 31.05633735 -42.49248708 27.91341048 -42.5546875 24.765625 C-42.60496094 23.44788086 -42.60496094 23.44788086 -42.65625 22.10351562 C-42.76110086 14.99986962 -41.4997162 8.70397394 -36.58300781 3.31665039 C-27.7803964 -4.94132219 -10.47616932 -5.83378841 0 0 Z " fill="#050505" transform="translate(820.3046875,440.796875)"/>
<path d="M0 0 C0.886875 0.53625 1.77375 1.0725 2.6875 1.625 C10.8925686 10.05182721 9.52076144 21.10560879 9.390625 32.03515625 C9.38315456 33.88316737 9.37746543 35.73118647 9.37347412 37.57920837 C9.35828092 42.41757496 9.3190543 47.25545294 9.2746582 52.09362793 C9.23356852 57.04086703 9.21543398 61.98818592 9.1953125 66.93554688 C9.15255315 76.62394593 9.08225574 86.31185569 9 96 C3.39 96 -2.22 96 -8 96 C-8 92.7 -8 89.4 -8 86 C-8.99 86 -9.98 86 -11 86 C-11.3403125 87.0828125 -11.3403125 87.0828125 -11.6875 88.1875 C-13.50394694 92.0798863 -16.12274973 95.06137486 -20 97 C-25.76113557 97.48539954 -31.13335708 97.79998982 -36.5 95.5 C-43.6612061 88.3387939 -45.11528543 81.68316475 -45.3125 71.6875 C-45.25504751 65.1698347 -44.53400113 60.48611604 -41 55 C-40.64550781 54.40058594 -40.29101562 53.80117188 -39.92578125 53.18359375 C-33.36938028 43.9384479 -19.340237 39.36431649 -9 36 C-8.94197302 32.56257082 -8.90639514 29.12526747 -8.875 25.6875 C-8.85824219 24.71103516 -8.84148438 23.73457031 -8.82421875 22.72851562 C-8.81777344 21.79072266 -8.81132813 20.85292969 -8.8046875 19.88671875 C-8.79421387 19.02264404 -8.78374023 18.15856934 -8.77294922 17.26831055 C-8.84909832 14.71819279 -8.84909832 14.71819279 -11 12 C-13.0500814 11.30620743 -13.0500814 11.30620743 -15.375 11.125 C-16.14585937 11.02445312 -16.91671875 10.92390625 -17.7109375 10.8203125 C-20.704161 11.05527544 -21.8262709 11.95761321 -24 14 C-24.6374253 16.20554477 -24.6374253 16.20554477 -24.609375 18.66796875 C-24.64160156 19.56064453 -24.67382812 20.45332031 -24.70703125 21.37304688 C-24.72830078 22.76620117 -24.72830078 22.76620117 -24.75 24.1875 C-24.79447266 25.59805664 -24.79447266 25.59805664 -24.83984375 27.03710938 C-24.91051892 29.35761078 -24.95752628 31.67881113 -25 34 C-30.94 34 -36.88 34 -43 34 C-43.53952315 11.34002755 -43.53952315 11.34002755 -37.6875 3.5625 C-28.86115459 -4.85331771 -10.44477476 -6.35768898 0 0 Z " fill="#040404" transform="translate(654,441)"/>
<path d="M0 0 C1.17289581 -0.00108765 2.34579163 -0.00217529 3.55422974 -0.0032959 C6.91512555 -0.00294293 10.27585166 0.00617418 13.63671875 0.01953125 C14.65520905 0.02074478 15.67369934 0.02195831 16.72305298 0.02320862 C18.13570938 0.03262733 18.13570938 0.03262733 19.5769043 0.04223633 C20.80898872 0.04795403 20.80898872 0.04795403 22.06596375 0.05378723 C24.27513536 0.18527607 26.18518796 0.59968986 28.3125 1.1875 C29.68451662 1.34715709 31.06019629 1.4773676 32.4375 1.58203125 C56.46001343 3.60510976 56.46001343 3.60510976 62.9375 10.5 C67.56093628 16.91841742 67.58821504 23.57470153 67.3125 31.1875 C63.58816618 29.9749262 59.93447194 28.67890021 56.3125 27.1875 C55.6525 29.1675 54.9925 31.1475 54.3125 33.1875 C51.00632848 29.26944002 49.34904643 24.75453703 47.47460938 20.05664062 C46.19027662 16.45094443 46.19027662 16.45094443 43.3125 14.1875 C43.23902344 15.24324219 43.23902344 15.24324219 43.1640625 16.3203125 C42.55722127 24.33480189 41.52295201 32.24317419 40.3125 40.1875 C39.6525 40.1875 38.9925 40.1875 38.3125 40.1875 C36.9707322 36.92006344 35.64055641 33.64803092 34.3125 30.375 C33.74015625 28.9818457 33.74015625 28.9818457 33.15625 27.56054688 C32.7953125 26.66787109 32.434375 25.77519531 32.0625 24.85546875 C31.55976563 23.62219849 31.55976563 23.62219849 31.046875 22.36401367 C30.3125 20.1875 30.3125 20.1875 30.3125 17.1875 C29.3225 17.1875 28.3325 17.1875 27.3125 17.1875 C27.11914062 17.94675781 26.92578125 18.70601563 26.7265625 19.48828125 C26.46617187 20.48214844 26.20578125 21.47601563 25.9375 22.5 C25.55464844 23.97919922 25.55464844 23.97919922 25.1640625 25.48828125 C24.3125 28.1875 24.3125 28.1875 22.3125 31.1875 C20.6625 30.5275 19.0125 29.8675 17.3125 29.1875 C17.02375 29.97125 16.735 30.755 16.4375 31.5625 C15.3125 34.1875 15.3125 34.1875 13.3125 36.1875 C12.61382812 35.47722656 11.91515625 34.76695312 11.1953125 34.03515625 C10.28523438 33.11605469 9.37515625 32.19695312 8.4375 31.25 C7.08011719 29.87521484 7.08011719 29.87521484 5.6953125 28.47265625 C3.53567745 26.17562373 3.53567745 26.17562373 1.3125 25.1875 C1.13074219 25.75597656 0.94898438 26.32445312 0.76171875 26.91015625 C-0.82834634 31.79451003 -2.59209778 36.49779027 -4.6875 41.1875 C-7.09556439 38.77943561 -7.82234973 36.691343 -9.0703125 33.5234375 C-9.51503906 32.40195312 -9.95976562 31.28046875 -10.41796875 30.125 C-10.87816406 28.949375 -11.33835937 27.77375 -11.8125 26.5625 C-12.28042969 25.37914062 -12.74835938 24.19578125 -13.23046875 22.9765625 C-14.38745823 20.04867076 -15.53958282 17.11895792 -16.6875 14.1875 C-19.50115155 17.00115155 -19.92393104 20.28331445 -20.8515625 24.0390625 C-21.04849701 24.81309418 -21.24543152 25.58712585 -21.44833374 26.38461304 C-22.07627615 28.85897133 -22.69448589 31.33564531 -23.3125 33.8125 C-23.73634079 35.48974478 -24.16081217 37.16683035 -24.5859375 38.84375 C-25.62711975 42.9565211 -26.65957944 47.07139524 -27.6875 51.1875 C-30.32112739 47.97659241 -31.94036975 44.68633456 -33.60546875 40.890625 C-34.13720703 39.68535156 -34.66894531 38.48007812 -35.21679688 37.23828125 C-35.76964326 35.97140304 -36.32237622 34.70447533 -36.875 33.4375 C-37.43898045 32.15473999 -38.00342874 30.87218557 -38.56835938 29.58984375 C-39.94602234 26.4577211 -41.31887343 23.32357924 -42.6875 20.1875 C-45.12708536 22.53150339 -47.22003971 24.74743166 -48.9765625 27.640625 C-49.36070312 28.259375 -49.74484375 28.878125 -50.140625 29.515625 C-50.930938 30.81173833 -51.71997286 32.10863176 -52.5078125 33.40625 C-53.51854772 35.03162151 -54.59781002 36.61397085 -55.6875 38.1875 C-56.3475 38.1875 -57.0075 38.1875 -57.6875 38.1875 C-59.42826551 36.07329325 -61.07075515 33.95570191 -62.6875 31.75 C-65.62795002 27.35277192 -65.62795002 27.35277192 -69.6875 24.1875 C-70.38617188 24.6928125 -71.08484375 25.198125 -71.8046875 25.71875 C-72.71476562 26.3684375 -73.62484375 27.018125 -74.5625 27.6875 C-75.46742187 28.3371875 -76.37234375 28.986875 -77.3046875 29.65625 C-79.6875 31.1875 -79.6875 31.1875 -81.6875 31.1875 C-82.25729972 21.69083802 -81.63145939 15.63709521 -75.25 8.4375 C-67.08483482 2.34165883 -55.44766845 1.45655377 -45.625 0.9375 C-44.35873779 0.86233154 -43.09247559 0.78716309 -41.7878418 0.7097168 C-27.8730573 -0.03487362 -13.9305367 0.00716045 0 0 Z " fill="#F7F8E2" transform="translate(188.6875,466.8125)"/>
<path d="M0 0 C15.18 0 30.36 0 46 0 C46 5.28 46 10.56 46 16 C36.76 16 27.52 16 18 16 C18 29.2 18 42.4 18 56 C26.91 56 35.82 56 45 56 C45 61.28 45 66.56 45 72 C36.09 72 27.18 72 18 72 C18 91.14 18 110.28 18 130 C12.06 130 6.12 130 0 130 C0 87.1 0 44.2 0 0 Z " fill="#060606" transform="translate(655,569)"/>
<path d="M0 0 C5.94 0 11.88 0 18 0 C18 37.62 18 75.24 18 114 C27.57 114 37.14 114 47 114 C47 119.28 47 124.56 47 130 C31.49 130 15.98 130 0 130 C0 87.1 0 44.2 0 0 Z " fill="#040404" transform="translate(600,569)"/>
<path d="M0 0 C5.94 0 11.88 0 18 0 C18 9.24 18 18.48 18 28 C23.28 28 28.56 28 34 28 C34 32.62 34 37.24 34 42 C28.72 42 23.44 42 18 42 C18.085459 50.81443549 18.17918662 59.62867607 18.28752708 68.4428606 C18.33750068 72.53552159 18.38383052 76.62815663 18.421875 80.72094727 C18.45871454 84.66976258 18.50507065 88.61836138 18.55806351 92.56699181 C18.57661459 94.07445165 18.59171993 95.58195791 18.60334396 97.08948708 C18.62019451 99.19896299 18.64922559 101.30794228 18.68115234 103.41723633 C18.69447601 104.61858719 18.70779968 105.81993805 18.7215271 107.05769348 C18.78338927 110.18840387 18.78338927 110.18840387 21 113 C24.34613512 113.58687784 24.34613512 113.58687784 28.125 113.6875 C29.40632813 113.75324219 30.68765625 113.81898438 32.0078125 113.88671875 C32.99523438 113.92410156 33.98265625 113.96148438 35 114 C35 118.29 35 122.58 35 127 C13.37368838 127.79201141 13.37368838 127.79201141 7 123 C2.65386516 118.76823713 0.26278464 113.52124542 -0.36076355 107.53871155 C-0.35410172 106.32847824 -0.34743988 105.11824493 -0.34057617 103.87133789 C-0.34101425 103.19731934 -0.34145233 102.52330078 -0.34190369 101.82885742 C-0.33983283 99.62648369 -0.31658455 97.42489507 -0.29296875 95.22265625 C-0.28736669 93.68566809 -0.28309947 92.14867453 -0.28010559 90.61167908 C-0.26870474 86.58548946 -0.23927927 82.55962956 -0.20599365 78.53356934 C-0.17518951 74.4176072 -0.16157825 70.30159129 -0.14648438 66.18554688 C-0.11440437 58.12354738 -0.06326649 50.06181482 0 42 C-2.64 42 -5.28 42 -8 42 C-8 37.38 -8 32.76 -8 28 C-5.36 28 -2.72 28 0 28 C0 18.76 0 9.52 0 0 Z " fill="#060606" transform="translate(1016,411)"/>
<path d="M0 0 C5.94 0 11.88 0 18 0 C18 9.24 18 18.48 18 28 C23.28 28 28.56 28 34 28 C34 32.62 34 37.24 34 42 C28.72 42 23.44 42 18 42 C18.085459 50.81443549 18.17918662 59.62867607 18.28752708 68.4428606 C18.33750068 72.53552159 18.38383052 76.62815663 18.421875 80.72094727 C18.45871454 84.66976258 18.50507065 88.61836138 18.55806351 92.56699181 C18.57661459 94.07445165 18.59171993 95.58195791 18.60334396 97.08948708 C18.62019451 99.19896299 18.64922559 101.30794228 18.68115234 103.41723633 C18.69447601 104.61858719 18.70779968 105.81993805 18.7215271 107.05769348 C18.78338927 110.18840387 18.78338927 110.18840387 21 113 C24.34613512 113.58687784 24.34613512 113.58687784 28.125 113.6875 C29.40632812 113.75324219 30.68765625 113.81898438 32.0078125 113.88671875 C32.99523437 113.92410156 33.98265625 113.96148438 35 114 C35 118.29 35 122.58 35 127 C13.37368838 127.79201141 13.37368838 127.79201141 7 123 C2.65386516 118.76823713 0.26278464 113.52124542 -0.36076355 107.53871155 C-0.35410172 106.32847824 -0.34743988 105.11824493 -0.34057617 103.87133789 C-0.34101425 103.19731934 -0.34145233 102.52330078 -0.34190369 101.82885742 C-0.33983283 99.62648369 -0.31658455 97.42489507 -0.29296875 95.22265625 C-0.28736669 93.68566809 -0.28309947 92.14867453 -0.28010559 90.61167908 C-0.26870474 86.58548946 -0.23927927 82.55962956 -0.20599365 78.53356934 C-0.17518951 74.4176072 -0.16157825 70.30159129 -0.14648438 66.18554688 C-0.11440437 58.12354738 -0.06326649 50.06181482 0 42 C-2.64 42 -5.28 42 -8 42 C-8 37.38 -8 32.76 -8 28 C-5.36 28 -2.72 28 0 28 C0 18.76 0 9.52 0 0 Z " fill="#060606" transform="translate(683,411)"/>
<path d="M0 0 C5.94 0 11.88 0 18 0 C18 9.24 18 18.48 18 28 C22.95 28 27.9 28 33 28 C33 32.62 33 37.24 33 42 C27.72 42 22.44 42 17 42 C17.10803871 50.81436052 17.22011841 59.6286441 17.33933926 68.4428606 C17.39453443 72.53552883 17.447949 76.62820424 17.49731445 80.72094727 C17.54500823 84.66969218 17.59735288 88.61835041 17.65294075 92.56699181 C17.67334158 94.07446831 17.69205841 95.58196856 17.70907402 97.08948708 C17.73316838 99.19882423 17.76321591 101.307998 17.79467773 103.41723633 C17.81799416 105.21926262 17.81799416 105.21926262 17.84178162 107.05769348 C17.87300307 110.06039428 17.87300307 110.06039428 19 113 C23.95 113.33 28.9 113.66 34 114 C34 118.29 34 122.58 34 127 C31.16607074 127.08174796 28.33455181 127.14084985 25.5 127.1875 C24.70851563 127.21263672 23.91703125 127.23777344 23.1015625 127.26367188 C16.72343582 127.34209147 11.21359684 126.49385216 6.01171875 122.45703125 C5.35623047 121.64298828 5.35623047 121.64298828 4.6875 120.8125 C4.23761719 120.28269531 3.78773438 119.75289062 3.32421875 119.20703125 C-1.63954877 110.93408538 -1.39661874 102.90642572 -1.29296875 93.5625 C-1.28736471 92.07178171 -1.28309843 90.58105785 -1.28010559 89.09033203 C-1.26872028 85.190739 -1.23930868 81.29148791 -1.20599365 77.39202881 C-1.17515553 73.40332666 -1.16157106 69.41456858 -1.14648438 65.42578125 C-1.1144319 57.6170326 -1.06331346 49.80856444 -1 42 C-3.31 42 -5.62 42 -8 42 C-8 37.38 -8 32.76 -8 28 C-5.36 28 -2.72 28 0 28 C0 18.76 0 9.52 0 0 Z " fill="#070707" transform="translate(735,411)"/>
<path d="M0 0 C0.88602402 0.00222061 1.77204803 0.00444122 2.68492126 0.00672913 C3.68588333 0.00680466 4.6868454 0.00688019 5.71813965 0.00695801 C6.80666733 0.01211929 7.89519501 0.01728058 9.01670837 0.02259827 C10.67928932 0.02472069 10.67928932 0.02472069 12.37545776 0.02688599 C15.93168281 0.03250418 19.48784596 0.04505977 23.04405212 0.05775452 C25.44834809 0.06276717 27.85264504 0.06733048 30.25694275 0.07142639 C36.16516716 0.08247952 42.07335522 0.09923535 47.98155212 0.12025452 C49.69444174 5.06683068 51.40333639 10.01476156 53.10850525 14.96400452 C53.6894329 16.64830483 54.2714602 18.33222628 54.854599 20.01576233 C55.6914637 22.43242264 56.52439465 24.85040742 57.35655212 27.26869202 C57.61903748 28.02395172 57.88152283 28.77921143 58.15196228 29.55735779 C59.98155212 34.8925111 59.98155212 34.8925111 59.98155212 37.12025452 C35.23155212 37.12025452 10.48155212 37.12025452 -15.01844788 37.12025452 C-13.05907288 31.20087952 -11.09969788 25.28150452 -9.08094788 19.18275452 C-8.4635675 17.3124054 -7.84618713 15.44205627 -7.21009827 13.51502991 C-6.72067158 12.04091114 -6.2310223 10.56686626 -5.74110413 9.09291077 C-5.48711853 8.32072205 -5.23313293 7.54853333 -4.97145081 6.75294495 C-2.77633124 0.16540748 -2.77633124 0.16540748 0 0 Z " fill="#B1288E" transform="translate(108.01844787597656,715.8797454833984)"/>
<path d="M0 0 C16.5 0 33 0 50 0 C52.90793588 7.2698397 55.66880337 14.49468963 58.25 21.875 C58.61351562 22.89335938 58.97703125 23.91171875 59.3515625 24.9609375 C59.69445312 25.940625 60.03734375 26.9203125 60.390625 27.9296875 C60.70032227 28.80866699 61.01001953 29.68764648 61.32910156 30.59326172 C62 33 62 33 62 37 C37.58 37 13.16 37 -12 37 C-11.13236023 32.66180115 -9.94757076 28.66738625 -8.49609375 24.51171875 C-8.2808606 23.88769165 -8.06562744 23.26366455 -7.84387207 22.62072754 C-7.04528212 20.30842812 -6.24106392 17.99807559 -5.4375 15.6875 C-3.643125 10.510625 -1.84875 5.33375 0 0 Z " fill="#B2278D" transform="translate(207,716)"/>
<path d="M0 0 C6.13509619 7.18682696 6.40967109 13.13882439 6.5 22.25 C6.52900391 23.20583984 6.55800781 24.16167969 6.58789062 25.14648438 C6.67025922 34.44146346 3.86163657 41.83958539 -2.53125 48.65234375 C-25.41886202 67.81679971 -63.82501198 67.24888832 -91.5234375 65.09375 C-109.33669462 63.41487331 -129.62184279 59.75315721 -142.8125 46.5625 C-144.67873513 43.65441002 -146.28507483 40.65994786 -147.8125 37.5625 C-148.1425 36.9025 -148.4725 36.2425 -148.8125 35.5625 C-149.11069012 31.73579541 -149.09074155 27.89944595 -149.125 24.0625 C-149.15400391 23.010625 -149.18300781 21.95875 -149.21289062 20.875 C-149.27463164 13.20011631 -148.46678194 5.61210976 -143.11767578 -0.31567383 C-133.71173991 -8.69518456 -118.45987201 -9.5700925 -106.4375 -10 C-105.27355713 -10.0417334 -104.10961426 -10.0834668 -102.91040039 -10.12646484 C-14.90349055 -12.91635847 -14.90349055 -12.91635847 0 0 Z M-109.75 -6.6875 C-110.91635986 -6.6258667 -112.08271973 -6.5642334 -113.28442383 -6.50073242 C-123.03906293 -5.80690589 -134.30568997 -4.25681003 -141.51171875 2.94921875 C-146.6538478 9.32669412 -146.16121032 15.69714506 -145.8125 23.5625 C-142.53060862 22.34950388 -139.80498013 21.02748519 -137 18.9375 C-135.948125 18.15375 -134.89625 17.37 -133.8125 16.5625 C-129.8271718 20.30629316 -126.60354735 24.36535582 -123.36328125 28.76953125 C-122.85152344 29.36121094 -122.33976562 29.95289063 -121.8125 30.5625 C-121.1525 30.5625 -120.4925 30.5625 -119.8125 30.5625 C-118.39204306 28.85161391 -118.39204306 28.85161391 -116.9921875 26.625 C-116.45722656 25.81289063 -115.92226562 25.00078125 -115.37109375 24.1640625 C-114.81550781 23.30554688 -114.25992188 22.44703125 -113.6875 21.5625 C-113.12417969 20.70398438 -112.56085938 19.84546875 -111.98046875 18.9609375 C-110.58489751 16.83210002 -109.19594445 14.69923026 -107.8125 12.5625 C-105.23304215 15.14195785 -104.25427155 17.76242691 -102.7734375 21.1015625 C-102.48771881 21.74241791 -102.20200012 22.38327332 -101.90762329 23.04354858 C-100.99658398 25.08963896 -100.09197805 27.13850197 -99.1875 29.1875 C-98.57073426 30.57570829 -97.95355176 31.96373151 -97.3359375 33.3515625 C-95.82328417 36.75307444 -94.31638752 40.1571019 -92.8125 43.5625 C-90.51754031 40.12006046 -89.85266467 36.90666294 -89 32.9375 C-87.00280065 24.01893844 -84.48088278 15.30036 -81.8125 6.5625 C-79.37244181 9.54581643 -77.92774918 12.39228476 -76.55078125 15.984375 C-76.15439453 17.00917969 -75.75800781 18.03398437 -75.34960938 19.08984375 C-74.94548828 20.15332031 -74.54136719 21.21679688 -74.125 22.3125 C-73.50141602 23.93091797 -73.50141602 23.93091797 -72.86523438 25.58203125 C-71.84200429 28.24007722 -70.82466024 30.90022338 -69.8125 33.5625 C-67.52477524 30.60744065 -65.98504675 27.92880775 -64.625 24.4375 C-64.10873047 23.13425781 -64.10873047 23.13425781 -63.58203125 21.8046875 C-62.7042936 19.64231273 -62.7042936 19.64231273 -62.8125 17.5625 C-62.29300781 18.02140625 -61.77351563 18.4803125 -61.23828125 18.953125 C-57.49537834 22.24632608 -53.74271199 25.49202189 -49.8125 28.5625 C-47.55364676 25.30852492 -47.55364676 25.30852492 -46.8125 21.5625 C-44.8325 22.2225 -42.8525 22.8825 -40.8125 23.5625 C-40.14218281 21.6054132 -39.47635317 19.64678887 -38.8125 17.6875 C-38.255625 16.05167969 -38.255625 16.05167969 -37.6875 14.3828125 C-36.713728 11.73629146 -36.713728 11.73629146 -36.8125 9.5625 C-35.8225 9.5625 -34.8325 9.5625 -33.8125 9.5625 C-33.72097656 10.19542969 -33.62945312 10.82835937 -33.53515625 11.48046875 C-32.52615713 15.78371363 -30.88413006 19.77511331 -29.25 23.875 C-28.92064453 24.71095703 -28.59128906 25.54691406 -28.25195312 26.40820312 C-27.44251123 28.46113546 -26.62926543 30.51247286 -25.8125 32.5625 C-25.1525 32.5625 -24.4925 32.5625 -23.8125 32.5625 C-23.30668146 29.16750696 -22.80887756 25.77138518 -22.3125 22.375 C-22.16941406 21.41529297 -22.02632813 20.45558594 -21.87890625 19.46679688 C-21.74355469 18.53544922 -21.60820312 17.60410156 -21.46875 16.64453125 C-21.34306641 15.79093018 -21.21738281 14.9373291 -21.08789062 14.05786133 C-20.80977444 11.53780325 -20.764892 9.09564218 -20.8125 6.5625 C-18.5107451 8.65990675 -17.20129607 10.49458474 -15.98828125 13.35546875 C-15.68212891 14.06767578 -15.37597656 14.77988281 -15.06054688 15.51367188 C-14.75181641 16.25166016 -14.44308594 16.98964844 -14.125 17.75 C-13.80466797 18.49958984 -13.48433594 19.24917969 -13.15429688 20.02148438 C-12.36725259 21.86575232 -11.58900856 23.7137714 -10.8125 25.5625 C-10.1525 25.2325 -9.4925 24.9025 -8.8125 24.5625 C-8.15694881 22.03516765 -8.15694881 22.03516765 -7.8125 19.5625 C-7.18601563 19.85125 -6.55953125 20.14 -5.9140625 20.4375 C-5.09679687 20.80875 -4.27953125 21.18 -3.4375 21.5625 C-2.62539062 21.93375 -1.81328125 22.305 -0.9765625 22.6875 C1.10748433 23.68745013 1.10748433 23.68745013 3.1875 23.5625 C3.64819869 15.3893639 2.97894635 8.61459953 -1.75 1.75 C-11.11446893 -4.93890638 -22.69218884 -5.35939979 -33.8046875 -6.20385742 C-35.8125 -6.4375 -35.8125 -6.4375 -37.64201355 -6.94302368 C-40.00983679 -7.48245691 -42.12036585 -7.57149738 -44.5480957 -7.58276367 C-45.96075211 -7.59218239 -45.96075211 -7.59218239 -47.40194702 -7.60179138 C-48.42043732 -7.60300491 -49.43892761 -7.60421844 -50.48828125 -7.60546875 C-51.55382233 -7.60970352 -52.6193634 -7.61393829 -53.7171936 -7.61830139 C-57.18650201 -7.62822359 -60.65567986 -7.62821716 -64.125 -7.625 C-65.3005545 -7.62439575 -66.47610901 -7.6237915 -67.68728638 -7.62316895 C-81.72092384 -7.60349904 -95.73817955 -7.51927632 -109.75 -6.6875 Z M-81.8125 11.5625 C-82.04324219 12.59246094 -82.27398437 13.62242187 -82.51171875 14.68359375 C-84.46518358 23.25893885 -86.63387653 31.7118783 -89.23706055 40.11499023 C-90.13396554 43.04567743 -90.8125 45.47729108 -90.8125 48.5625 C-93.94144075 45.92566002 -95.2656077 42.82847225 -96.94921875 39.14453125 C-97.37567436 38.21866463 -97.37567436 38.21866463 -97.81074524 37.27409363 C-98.71343383 35.31053347 -99.60681256 33.34289751 -100.5 31.375 C-101.1120199 30.0394337 -101.72464346 28.70414385 -102.33789062 27.36914062 C-103.83643383 24.103434 -105.32665932 20.83400899 -106.8125 17.5625 C-110.83347453 18.90282484 -111.51328744 20.82459446 -113.75 24.375 C-116.16844628 28.20071175 -118.48174351 31.48508964 -121.8125 34.5625 C-122.04710937 34.03140625 -122.28171875 33.5003125 -122.5234375 32.953125 C-124.19952912 29.8447369 -126.29701926 27.10850297 -128.4375 24.3125 C-129.06785156 23.48105469 -129.06785156 23.48105469 -129.7109375 22.6328125 C-130.74188719 21.27383337 -131.77679911 19.91786165 -132.8125 18.5625 C-137.43799645 20.82220354 -141.95980679 23.10147062 -145.8125 26.5625 C-147.26717978 31.96559633 -144.98920258 36.39644692 -142.4140625 41.13671875 C-134.10066776 53.72847029 -117.75244347 57.56709236 -103.8125 60.5625 C-86.27383615 63.7924989 -68.39217691 63.14399839 -50.75 61.25 C-49.64470947 61.13245361 -48.53941895 61.01490723 -47.40063477 60.89379883 C-29.7785223 58.82099868 -11.57557797 54.58995009 0 40.21484375 C3.22587128 35.72621365 3.40129338 32.01423106 3.1875 26.5625 C2.094375 25.881875 1.00125 25.20125 -0.125 24.5 C-0.73988281 24.11714844 -1.35476562 23.73429687 -1.98828125 23.33984375 C-3.98383075 22.25137926 -3.98383075 22.25137926 -6.8125 23.5625 C-8.04219878 27.07440809 -8.04219878 27.07440809 -8.8125 30.5625 C-9.4725 30.5625 -10.1325 30.5625 -10.8125 30.5625 C-11.1528125 29.386875 -11.1528125 29.386875 -11.5 28.1875 C-13.21910933 23.43948375 -15.49334721 19.04147448 -17.8125 14.5625 C-19.72647959 17.43346939 -20.16577994 18.60647188 -20.6640625 21.87109375 C-20.79296875 22.70060547 -20.921875 23.53011719 -21.0546875 24.38476562 C-21.24417969 25.67930664 -21.24417969 25.67930664 -21.4375 27 C-21.5715625 27.85916016 -21.705625 28.71832031 -21.84375 29.60351562 C-22.41144306 33.3369664 -22.8125 36.76957982 -22.8125 40.5625 C-25.76882055 39.08433973 -26.00243491 37.03946094 -27.1953125 33.99609375 C-27.64003906 32.87138672 -28.08476562 31.74667969 -28.54296875 30.58789062 C-29.00316406 29.40388672 -29.46335937 28.21988281 -29.9375 27 C-30.63939453 25.21819336 -30.63939453 25.21819336 -31.35546875 23.40039062 C-32.51399428 20.45679003 -33.66602289 17.51080958 -34.8125 14.5625 C-36.71568884 17.41728326 -37.2744099 18.98191308 -37.9375 22.25 C-38.10507813 23.05824219 -38.27265625 23.86648438 -38.4453125 24.69921875 C-38.56648438 25.31410156 -38.68765625 25.92898438 -38.8125 26.5625 C-40.7925 25.9025 -42.7725 25.2425 -44.8125 24.5625 C-46.4625 26.8725 -48.1125 29.1825 -49.8125 31.5625 C-50.9180189 30.62659496 -52.02185453 29.68870142 -53.125 28.75 C-53.73988281 28.22792969 -54.35476562 27.70585937 -54.98828125 27.16796875 C-56.8125 25.5625 -56.8125 25.5625 -58.41796875 23.86328125 C-59.73841548 22.33513357 -59.73841548 22.33513357 -61.8125 22.5625 C-62.81946568 24.66334209 -63.8178589 26.76829489 -64.8125 28.875 C-65.369375 30.04675781 -65.92625 31.21851563 -66.5 32.42578125 C-68.00550084 35.45704167 -68.00550084 35.45704167 -67.8125 38.5625 C-68.8025 38.5625 -69.7925 38.5625 -70.8125 38.5625 C-70.94084229 37.8415918 -71.06918457 37.12068359 -71.20141602 36.37792969 C-72.22034736 31.68343656 -74.04180394 27.29311338 -75.75 22.8125 C-76.11029297 21.84183594 -76.47058594 20.87117188 -76.84179688 19.87109375 C-77.19177734 18.94941406 -77.54175781 18.02773438 -77.90234375 17.078125 C-78.22066162 16.23540039 -78.53897949 15.39267578 -78.86694336 14.52441406 C-79.64964294 12.3891088 -79.64964294 12.3891088 -81.8125 11.5625 Z " fill="#332859" transform="translate(252.8125,474.4375)"/>
<path d="M0 0 C30.03 0 60.06 0 91 0 C91 7.26 91 14.52 91 22 C89.16642556 23.83357444 86.60364305 23.11999967 84.1640625 23.12442017 C83.32609131 23.12082489 82.48812012 23.11722961 81.62475586 23.11352539 C80.30780479 23.11374443 80.30780479 23.11374443 78.96424866 23.1139679 C76.04775565 23.11326844 73.13132567 23.10547455 70.21484375 23.09765625 C68.19845108 23.09579218 66.18205796 23.09436823 64.16566467 23.09336853 C58.84734862 23.08954244 53.5290597 23.07971139 48.21075439 23.06866455 C42.78829312 23.05845238 37.36582748 23.05387133 31.94335938 23.04882812 C21.29555906 23.0380892 10.64778602 23.02049167 0 23 C0 15.41 0 7.82 0 0 Z " fill="#2C2254" transform="translate(136,418)"/>
<path d="M0 0 C16.5 0 33 0 50 0 C50 12.21 50 24.42 50 37 C33.5 37 17 37 0 37 C0 24.79 0 12.58 0 0 Z " fill="#7B46A6" transform="translate(207,640)"/>
<path d="M0 0 C16.17 0 32.34 0 49 0 C49 12.21 49 24.42 49 37 C32.83 37 16.66 37 0 37 C0 24.79 0 12.58 0 0 Z " fill="#7A47A6" transform="translate(106,640)"/>
<path d="M0 0 C2.8407054 2.44050539 3.9371344 4.84958444 5.26171875 8.32421875 C5.65810547 9.35224609 6.05449219 10.38027344 6.46289062 11.43945312 C6.86701172 12.51130859 7.27113281 13.58316406 7.6875 14.6875 C8.31108398 16.31268555 8.31108398 16.31268555 8.94726562 17.97070312 C9.97202056 20.64448899 10.98927126 23.32088741 12 26 C14.48830503 23.51169497 15.30825691 21.1322066 16.625 17.875 C17.29402344 16.23144531 17.29402344 16.23144531 17.9765625 14.5546875 C18.31429687 13.71164062 18.65203125 12.86859375 19 12 C22.45201639 13.47721422 24.64961936 15.43794001 27.25 18.125 C27.95640625 18.84945313 28.6628125 19.57390625 29.390625 20.3203125 C30.18726563 21.15175781 30.18726563 21.15175781 31 22 C32.32 20.02 33.64 18.04 35 16 C36.65 16.33 38.3 16.66 40 17 C41.65 12.71 43.3 8.42 45 4 C45.99 4 46.98 4 48 4 C49.3417678 7.26743656 50.67194359 10.53946908 52 13.8125 C52.3815625 14.74126953 52.763125 15.67003906 53.15625 16.62695312 C53.5171875 17.51962891 53.878125 18.41230469 54.25 19.33203125 C54.75273437 20.56530151 54.75273437 20.56530151 55.265625 21.82348633 C56 24 56 24 56 27 C56.66 27 57.32 27 58 27 C58.07347656 25.69289063 58.07347656 25.69289063 58.1484375 24.359375 C58.64422493 16.46096843 59.53298989 8.77657787 61 1 C64 2 64 2 65.7890625 5.5625 C66.4119166 7.03712039 67.02346562 8.51655505 67.625 10 C69.296568 14.84618631 69.296568 14.84618631 72 19 C72.99 16.525 72.99 16.525 74 14 C74.99 14 75.98 14 77 14 C76.52269162 15.4589426 76.04308958 16.91713496 75.5625 18.375 C75.29566406 19.18710937 75.02882812 19.99921875 74.75390625 20.8359375 C74 23 74 23 73 25 C72.34 25 71.68 25 71 25 C68.69 20.38 66.38 15.76 64 11 C62.44936079 15.65191764 61.55133741 19.34841643 60.9375 24.125 C59.97289541 31.53890306 59.97289541 31.53890306 59 35 C56 34 56 34 54.83325195 31.77514648 C54.47191162 30.81680908 54.11057129 29.85847168 53.73828125 28.87109375 C53.34189453 27.83662109 52.94550781 26.80214844 52.53710938 25.73632812 C52.13298828 24.64771484 51.72886719 23.55910156 51.3125 22.4375 C50.68891602 20.7987793 50.68891602 20.7987793 50.05273438 19.12695312 C49.0250127 16.42180068 48.01119964 13.71137177 47 11 C45.68 14.3 44.36 17.6 43 21 C41.02 20.67 39.04 20.34 37 20 C35.35 22.31 33.7 24.62 32 27 C30.948125 26.0925 29.89625 25.185 28.8125 24.25 C25.92221882 21.77093769 22.99140521 19.35686471 20 17 C19.81824219 17.56847656 19.63648438 18.13695312 19.44921875 18.72265625 C17.85915366 23.60701003 16.09540222 28.31029027 14 33 C13.01 33 12.02 33 11 33 C7.7 24.42 4.4 15.84 1 7 C0.0925 10.526875 -0.815 14.05375 -1.75 17.6875 C-3.95546256 26.19926341 -6.2717684 34.63877258 -9 43 C-12 42 -12 42 -13.53393555 39.34790039 C-14.062854 38.19281982 -14.59177246 37.03773926 -15.13671875 35.84765625 C-15.56317436 34.92465981 -15.56317436 34.92465981 -15.99824524 33.98301697 C-16.59723566 32.68143271 -17.19120567 31.37752806 -17.78051758 30.0715332 C-18.68449345 28.06915973 -19.60347288 26.07424502 -20.52539062 24.08007812 C-25 14.31856565 -25 14.31856565 -25 12 C-29.01252435 15.70104986 -31.85204775 20.04421993 -34.8203125 24.57421875 C-35.83267133 26.0824966 -36.91142887 27.54576984 -38 29 C-38.66 29 -39.32 29 -40 29 C-41.95981288 26.74592092 -43.80400764 24.4867439 -45.625 22.125 C-46.140625 21.47402344 -46.65625 20.82304687 -47.1875 20.15234375 C-51 15.26064401 -51 15.26064401 -51 13 C-54.3 15.31 -57.6 17.62 -61 20 C-61.33 19.01 -61.66 18.02 -62 17 C-58.7 14.69 -55.4 12.38 -52 10 C-47.02885248 13.46473918 -43.35279405 17.9949645 -40 23 C-40 23.66 -40 24.32 -40 25 C-39.34 25 -38.68 25 -38 25 C-37.77570313 24.32582031 -37.55140625 23.65164063 -37.3203125 22.95703125 C-35.62409831 19.15811368 -33.33164843 16.02840424 -30.875 12.6875 C-30.17310547 11.71973633 -30.17310547 11.71973633 -29.45703125 10.73242188 C-28.3094071 9.15151106 -27.15534523 7.57527699 -26 6 C-22.92492798 8.59646159 -21.67688124 11.54649781 -20.08203125 15.19921875 C-19.81992355 15.79426712 -19.55781586 16.38931549 -19.2877655 17.00239563 C-18.45607198 18.89461606 -17.6341851 20.79091516 -16.8125 22.6875 C-16.24868972 23.9748911 -15.68424352 25.2620039 -15.11914062 26.54882812 C-13.73980842 29.69653494 -12.36705211 32.84694513 -11 36 C-9.5886194 31.90538195 -8.39366801 27.81451941 -7.34375 23.61328125 C-7.04339844 22.42798828 -6.74304688 21.24269531 -6.43359375 20.02148438 C-5.80842354 17.53780607 -5.18605146 15.05342185 -4.56640625 12.56835938 C-4.26605469 11.38693359 -3.96570313 10.20550781 -3.65625 8.98828125 C-3.38619141 7.91102783 -3.11613281 6.83377441 -2.83789062 5.72387695 C-2 3 -2 3 0 0 Z " fill="#3C345F" transform="translate(171,480)"/>
<path d="M0 0 C0.86825912 0.00222061 1.73651825 0.00444122 2.63108826 0.00672913 C3.61202957 0.00680466 4.59297089 0.00688019 5.6036377 0.00695801 C6.6702916 0.01211929 7.7369455 0.01728058 8.83592224 0.02259827 C9.92211349 0.02401321 11.00830475 0.02542816 12.12741089 0.02688599 C15.61230674 0.03250403 19.09713941 0.04505959 22.58201599 0.05775452 C24.93813486 0.06276719 27.29425473 0.0673305 29.65037537 0.07142639 C35.44011342 0.08247933 41.22980398 0.09975605 47.01951599 0.12025452 C47.01951599 5.73025452 47.01951599 11.34025452 47.01951599 17.12025452 C30.51951599 17.12025452 14.01951599 17.12025452 -2.98048401 17.12025452 C-2.98048401 0.18097428 -2.98048401 0.18097428 0 0 Z " fill="#522D8F" transform="translate(209.98048400878906,592.8797454833984)"/>
<path d="M0 0 C16.17 0 32.34 0 49 0 C49 5.61 49 11.22 49 17 C32.83 17 16.66 17 0 17 C0 11.39 0 5.78 0 0 Z " fill="#532D90" transform="translate(106,593)"/>
<path d="M0 0 C10.56 0 21.12 0 32 0 C32 7.92 32 15.84 32 24 C21.44 24 10.88 24 0 24 C0 16.08 0 8.16 0 0 Z " fill="#DD91BE" transform="translate(216,680)"/>
<path d="M0 0 C1.98 0 3.96 0 6 0 C5.48027825 13.04949466 4.91203813 26.09600841 4.28125 39.140625 C4.2179248 40.45156128 4.15459961 41.76249756 4.08935547 43.11315918 C3.82843225 48.50536047 3.56632708 53.8975032 3.30224609 59.28955078 C2.54805974 74.70291745 1.83321367 90.11388299 1.37255859 105.53936768 C1.03501269 116.07043897 0.10101176 126.52435412 -1 137 C-2.65 137 -4.3 137 -6 137 C-6.17321478 122.7222444 -5.62781928 108.51726029 -4.94140625 94.2578125 C-4.83139593 91.91333418 -4.72169631 89.56884127 -4.61228943 87.22433472 C-4.38370187 82.34474162 -4.15231785 77.46529236 -3.91870117 72.5859375 C-3.62068522 66.35954746 -3.32833058 60.1329078 -3.03788853 53.90616035 C-2.81228663 49.07772575 -2.58441016 44.24940067 -2.35578728 39.42110825 C-2.24722632 37.12561398 -2.13919023 34.83009482 -2.03170967 32.53454971 C-0.95640912 9.64264366 -0.95640912 9.64264366 0 0 Z " fill="#B26AA7" transform="translate(265,453)"/>
<path d="M0 0 C10.23 0 20.46 0 31 0 C31 7.59 31 15.18 31 23 C20.77 23 10.54 23 0 23 C0 15.41 0 7.82 0 0 Z " fill="#DD91BE" transform="translate(115,680)"/>
<path d="M0 0 C12.52941176 0 12.52941176 0 17 4 C19.26965883 8.53931765 18.27519983 14.76669751 18.3125 19.75 C18.34150391 21.02617188 18.37050781 22.30234375 18.40039062 23.6171875 C18.47187772 34.15328591 18.47187772 34.15328591 16.16796875 37.828125 C14 40 14 40 11 41 C7.37 41 3.74 41 0 41 C0 27.47 0 13.94 0 0 Z " fill="#F5F5F5" transform="translate(555,584)"/>
<path d="M0 0 C11.57142857 0 11.57142857 0 15 3 C18.26419916 7.97786763 17.37195126 14.16904862 17.37060547 19.89941406 C17.37498674 21.99366109 17.41135393 24.0858119 17.44921875 26.1796875 C17.45508617 27.51561783 17.45905607 28.85155811 17.4609375 30.1875 C17.46915527 31.39792969 17.47737305 32.60835937 17.48583984 33.85546875 C16.90920358 37.58766725 15.93300013 38.70989601 13 41 C11 42 11 42 0 42 C0 28.14 0 14.28 0 0 Z " fill="#FDFDFD" transform="translate(556,641)"/>
<path d="M0 0 C5 2 5 2 6 4 C6.09202562 5.45717088 6.12193276 6.91849765 6.12025452 8.37857056 C6.12162918 9.29846268 6.12300385 10.2183548 6.12442017 11.16612244 C6.12082489 12.17816238 6.11722961 13.19020233 6.11352539 14.23291016 C6.11367142 15.2963414 6.11381744 16.35977264 6.1139679 17.45542908 C6.11326919 20.98332737 6.10547871 24.51117339 6.09765625 28.0390625 C6.09579192 30.48001069 6.09436809 32.92095926 6.09336853 35.36190796 C6.08954451 41.79647855 6.0797152 48.23102668 6.06866455 54.66558838 C6.05844795 61.22757666 6.05387038 67.78956856 6.04882812 74.3515625 C6.03809284 87.2343846 6.02120915 100.11719111 6 113 C4.02 113 2.04 113 0 113 C0 75.71 0 38.42 0 0 Z " fill="#942C85" transform="translate(282,488)"/>
<path d="M0 0 C1.65 0 3.3 0 5 0 C8.47712301 22.03658079 11.77154768 44.09505286 14.875 66.1875 C15.11018845 67.85205231 15.11018845 67.85205231 15.35012817 69.55023193 C15.79646792 72.71404566 16.23881182 75.87838951 16.6796875 79.04296875 C16.81377518 79.99234818 16.94786285 80.9417276 17.08601379 81.9198761 C17.20699936 82.79605087 17.32798492 83.67222565 17.45263672 84.57495117 C17.55889374 85.33668137 17.66515076 86.09841156 17.77462769 86.88322449 C18 89 18 89 18 93 C-21.27 93 -60.54 93 -101 93 C-101 91.02 -101 89.04 -101 87 C-100.67 87 -100.34 87 -100 87 C-100 88.65 -100 90.3 -100 92 C-63.04 92 -26.08 92 12 92 C10.35 81.11 8.7 70.22 7 59 C5.4375 47.6875 5.4375 47.6875 4.7578125 42.5625 C4.18538736 38.28586922 3.56430617 34.01783831 2.9296875 29.75 C2.7447876 28.49614502 2.5598877 27.24229004 2.36938477 25.95043945 C2.00793634 23.5080876 1.64152817 21.06646267 1.26928711 18.62573242 C0.34373765 12.33769316 -0.19586956 6.35562958 0 0 Z " fill="#8C2D83" transform="translate(223,357)"/>
<path d="M0 0 C28.38 0 56.76 0 86 0 C86 2.31 86 4.62 86 7 C57.62 7 29.24 7 0 7 C0 4.69 0 2.38 0 0 Z " fill="#794DA2" transform="translate(138,421)"/>
<path d="M0 0 C28.38 0 56.76 0 86 0 C86 2.31 86 4.62 86 7 C74.93465142 7.02312283 63.86930855 7.04091478 52.80394077 7.05181217 C47.66640434 7.05704113 42.52888437 7.06413901 37.39135742 7.07543945 C32.4376859 7.08626787 27.48403026 7.09227674 22.53034782 7.09487724 C20.63602384 7.09673157 18.74170076 7.10035234 16.8473835 7.10573006 C14.20365614 7.11293989 11.55999529 7.11399097 8.91625977 7.11352539 C8.12504227 7.11712067 7.33382477 7.12071594 6.51863098 7.12442017 C1.11405216 7.11405216 1.11405216 7.11405216 0 6 C0 4.02 0 2.04 0 0 Z " fill="#74469F" transform="translate(138,431)"/>
<path d="M0 0 C0 37.29 0 74.58 0 113 C-1.65 113 -3.3 113 -5 113 C-5.07004986 98.70962974 -5.122769 84.41928606 -5.15543652 70.12877941 C-5.17111285 63.49358872 -5.19238718 56.85851312 -5.22631836 50.22338867 C-5.25884137 43.82379839 -5.27683818 37.42431901 -5.28463173 31.02465248 C-5.29018792 28.57933111 -5.30103734 26.13401602 -5.31719017 23.68874168 C-5.33887029 20.27177032 -5.34197083 16.85526115 -5.34057617 13.43823242 C-5.351362 12.42043701 -5.36214783 11.4026416 -5.3732605 10.35400391 C-5.36913651 9.42432297 -5.36501251 8.49464203 -5.36076355 7.53678894 C-5.36352893 6.72837649 -5.36629431 5.91996405 -5.36914349 5.08705425 C-4.80479433 1.89635104 -3.33715947 0 0 0 Z " fill="#A22488" transform="translate(80,488)"/>
<path d="M0 0 C0.08719631 4.56237931 0.14045922 9.12454386 0.1875 13.6875 C0.21263672 14.98107422 0.23777344 16.27464844 0.26367188 17.60742188 C0.27333984 18.85458984 0.28300781 20.10175781 0.29296875 21.38671875 C0.3086792 22.53358154 0.32438965 23.68044434 0.34057617 24.86206055 C-0.03797604 28.34989683 -0.94382606 30.1904333 -3 33 C-6.61050587 35.80817123 -10.63659203 35.34630222 -15 35 C-17.67431489 33.18836733 -17.95920359 32.12238923 -19 29 C-19.17431213 26.37960286 -19.27684435 23.80937916 -19.3125 21.1875 C-19.35600586 20.13852539 -19.35600586 20.13852539 -19.40039062 19.06835938 C-19.46296564 13.92276778 -18.4097373 11.05641162 -15 7 C-12.74609375 5.13671875 -12.74609375 5.13671875 -10.4375 3.6875 C-9.67308594 3.19636719 -8.90867187 2.70523437 -8.12109375 2.19921875 C-5.27937661 0.59257573 -3.27795812 0 0 0 Z " fill="#FBFBFB" transform="translate(979,490)"/>
<path d="M0 0 C0.1455841 4.54132797 0.23417333 9.08205341 0.3125 13.625 C0.35439453 14.91019531 0.39628906 16.19539063 0.43945312 17.51953125 C0.57759155 28.18381746 0.57759155 28.18381746 -2.39453125 31.8359375 C-6.03969659 34.86355608 -8.20490559 35.18210345 -12.9296875 35.5234375 C-15 35 -15 35 -17.2265625 33.00390625 C-19.56387588 29.04488865 -19.59405504 26.07322305 -19.5 21.5625 C-19.51546875 20.82451172 -19.5309375 20.08652344 -19.546875 19.32617188 C-19.50976307 14.10730669 -18.37760542 11.15801333 -15 7 C-10.82156731 3.04742854 -5.87797322 0 0 0 Z " fill="#F9F9F9" transform="translate(646,490)"/>
<path d="M0 0 C0.0992502 4.03833789 0.17164562 8.07619872 0.21972656 12.11547852 C0.2397799 13.48800023 0.26703028 14.86043717 0.30175781 16.23266602 C0.35054552 18.21072044 0.37088876 20.18941119 0.390625 22.16796875 C0.41157227 23.35672607 0.43251953 24.5454834 0.45410156 25.77026367 C-0.089385 29.63573881 -1.29152022 31.24650481 -4 34 C-7.19233485 35.59616743 -10.53461497 35.51466114 -14 35 C-16.43119623 33.12984906 -17.64069173 31.71861655 -19 29 C-20.03905599 14.91312613 -20.03905599 14.91312613 -17.5625 9.9375 C-13.07281023 4.79078245 -7.08664866 0 0 0 Z " fill="#F9F9F9" transform="translate(812,490)"/>
<path d="M0 0 C5.33909545 3.22277637 8.80579837 6.86498812 10.5625 12.93359375 C10.5625 14.25359375 10.5625 15.57359375 10.5625 16.93359375 C-0.9875 16.93359375 -12.5375 16.93359375 -24.4375 16.93359375 C-23.43463996 8.91071346 -23.00134373 6.87052551 -17.4375 1.93359375 C-11.99304398 -1.81703151 -6.09882399 -2.66823549 0 0 Z " fill="#DA8FBC" transform="translate(188.4375,328.06640625)"/>
<path d="M0 0 C0.86825912 0.00222061 1.73651825 0.00444122 2.63108826 0.00672913 C3.61202957 0.00680466 4.59297089 0.00688019 5.6036377 0.00695801 C6.6702916 0.01211929 7.7369455 0.01728058 8.83592224 0.02259827 C9.92211349 0.02401321 11.00830475 0.02542816 12.12741089 0.02688599 C15.61230674 0.03250403 19.09713941 0.04505959 22.58201599 0.05775452 C24.93813486 0.06276719 27.29425473 0.0673305 29.65037537 0.07142639 C35.44011063 0.08247933 41.2298088 0.09923501 47.01951599 0.12025452 C47.01951599 2.76025452 47.01951599 5.40025452 47.01951599 8.12025452 C40.05948152 8.1455229 33.09945879 8.16308674 26.13938904 8.17518616 C23.76959288 8.18022793 21.39979984 8.18706117 19.03001404 8.19569397 C15.6319756 8.20776642 12.23397814 8.21348423 8.83592224 8.21791077 C7.76926834 8.22307205 6.70261444 8.22823334 5.6036377 8.23355103 C4.62269638 8.23362656 3.64175507 8.23370209 2.63108826 8.23377991 C1.76282913 8.23600052 0.89457001 8.23822113 0 8.24050903 C-1.98048401 8.12025452 -1.98048401 8.12025452 -2.98048401 7.12025452 C-3.10548401 4.12025452 -3.10548401 4.12025452 -2.98048401 1.12025452 C-1.98048401 0.12025452 -1.98048401 0.12025452 0 0 Z " fill="#513189" transform="translate(209.98048400878906,705.8797454833984)"/>
<path d="M0 0 C16.17 0 32.34 0 49 0 C49 2.64 49 5.28 49 8 C32.83 8 16.66 8 0 8 C0 5.36 0 2.72 0 0 Z " fill="#51318A" transform="translate(106,706)"/>
<path d="M0 0 C3.6578218 2.03993908 5.66946174 3.50419262 8 7 C8.66248749 11.96865615 8.56954654 14.90175375 5.5625 19 C2.98337228 21.67080288 1.14493482 22.50770801 -2.5625 22.6875 C-6.76153575 22.3411149 -9.10522028 21.15794151 -12 18 C-14.28582634 14.73453379 -14.40058025 11.92568648 -14 8 C-11.24745384 1.77055343 -6.79684835 -0.97097834 0 0 Z " fill="#F6F7E2" transform="translate(208,378)"/>
<path d="M0 0 C3.0625 1.9375 3.0625 1.9375 5 5 C5.91455665 9.97290177 5.7861114 13.71601805 3.125 18.0625 C-0.43270598 21.30629075 -3.07412967 21.33052231 -7.73828125 21.29296875 C-11.0542278 20.86344199 -12.74987627 19.39075646 -15 17 C-16.89256739 13.21486521 -16.74530017 9.10228242 -16 5 C-12.1848635 -1.20707161 -6.62243596 -2.3023796 0 0 Z " fill="#F7F8E2" transform="translate(163,379)"/>
<path d="M0 0 C2.31 0 4.62 0 7 0 C7.93201642 15.67784758 8.12135629 31.29649572 8 47 C5.36 47 2.72 47 0 47 C0 31.49 0 15.98 0 0 Z " fill="#462B84" transform="translate(83,463)"/>
<path d="M0 0 C1.98 0 3.96 0 6 0 C6 15.51 6 31.02 6 47 C3.03 47 0.06 47 -3 47 C-2.7383775 41.109876 -2.47172259 35.22000925 -2.20043945 29.33032227 C-2.10889185 27.3274551 -2.01871007 25.32452502 -1.92993164 23.3215332 C-1.80194977 20.43943866 -1.66902798 17.55760748 -1.53515625 14.67578125 C-1.49656998 13.78288895 -1.4579837 12.88999664 -1.41822815 11.970047 C-1.22411012 7.88769852 -0.98135576 3.98653312 0 0 Z " fill="#452987" transform="translate(274,463)"/>
<path d="M0 0 C14.85 0 29.7 0 45 0 C45 2.31 45 4.62 45 7 C30.15 7 15.3 7 0 7 C0 4.69 0 2.38 0 0 Z " fill="#522E8C" transform="translate(159,347)"/>
<path d="M0 0 C16.5 0 33 0 50 0 C52.90793588 7.2698397 55.66880337 14.49468963 58.25 21.875 C58.61351562 22.89335938 58.97703125 23.91171875 59.3515625 24.9609375 C59.69445312 25.940625 60.03734375 26.9203125 60.390625 27.9296875 C60.70032227 28.80866699 61.01001953 29.68764648 61.32910156 30.59326172 C62 33 62 33 62 37 C37.58 37 13.16 37 -12 37 C-11.67 36.01 -11.34 35.02 -11 34 C-11 34.66 -11 35.32 -11 36 C11.11 35.67 33.22 35.34 56 35 C52.37 24.11 48.74 13.22 45 2 C30.15 1.67 15.3 1.34 0 1 C0 0.67 0 0.34 0 0 Z " fill="#903487" transform="translate(207,716)"/>
<path d="M0 0 C4.29580909 2.36957441 7.13147601 5.46339757 9 10 C9.59625167 16.1612673 9.02737586 19.05208109 5 24 C3.375 25.875 3.375 25.875 2 27 C1.34 27 0.68 27 0 27 C-0.31922728 22.31799986 0.25666169 20.65778441 3 17 C3.58490372 13.07278932 3.34594305 11.51891457 1.125 8.1875 C-1.38144907 5.60733184 -2.25461673 5.08282036 -5.8125 4.6875 C-9.91448247 5.08965514 -11.36270753 5.81973555 -14 9 C-14.82370552 13.70446246 -14.66803806 16.99794291 -12 21 C-11.875 24.1875 -11.875 24.1875 -12 27 C-16.52462758 24.79882982 -18.30009305 22.74184571 -20 18 C-20.77960242 12.64957791 -20.09886301 8.54499908 -17 4 C-12.03927385 -0.71268985 -6.5309029 -1.26832027 0 0 Z " fill="#D188B7" transform="translate(291,604)"/>
<path d="M0 0 C4.61803133 1.76860774 6.83605984 4.59197375 9 9 C9.81604782 14.06938796 9.55149614 17.85615616 7.3125 22.5 C4.93461942 25.07068171 3.34170288 26.0717492 0 27 C0 25.02 0 23.04 0 21 C0.66 21 1.32 21 2 21 C3.18725323 17.28983366 3.34572261 13.87209322 3 10 C0.38882396 6.69251035 -1.62603815 5.18319491 -5.8125 4.625 C-9.15103868 4.75709764 -9.15103868 4.75709764 -11.875 7.0625 C-14.51938231 10.71796966 -14.56308865 12.575732 -14 17 C-13.36525925 18.34882408 -12.70151152 19.6846659 -12 21 C-11.875 23.75 -11.875 23.75 -12 26 C-15.17134992 25.77347501 -16.05609944 24.9392256 -18.25 22.5625 C-20.55244905 17.87537158 -21.20378837 14.12200148 -20 9 C-14.65272659 0.51380765 -9.66075943 -0.75605943 0 0 Z " fill="#D38AB8" transform="translate(83,604)"/>
<path d="M0 0 C-2.48632302 1.65754868 -4.1268687 2.46608498 -6.875 3.375 C-11.34769819 5.05430976 -14.71062595 6.60682591 -17.07714844 10.99926758 C-20.01467702 17.81575123 -20.6113137 23.75046732 -20.5 31.125 C-20.51546875 32.15753906 -20.5309375 33.19007813 -20.546875 34.25390625 C-20.50272246 42.91884183 -18.28135318 49.71864682 -12 56 C-3.09528737 62.44170701 7.41237011 66.29153654 18 69 C18 69.33 18 69.66 18 70 C5.61093749 69.37004767 -9.07418818 63.92581182 -18 55 C-26.12544974 42.96082508 -26.75485912 30.55150961 -24.38671875 16.3125 C-22.34319746 9.83084656 -18.9601375 6.18018226 -13 3 C-8.74869829 0.94872735 -4.78731926 -0.44881118 0 0 Z " fill="#AE66A3" transform="translate(125,467)"/>
<path d="M0 0 C0.33 0 0.66 0 1 0 C1 11.88 1 23.76 1 36 C15.52 36 30.04 36 45 36 C45 24.12 45 12.24 45 0 C46.65 0 48.3 0 50 0 C50 12.21 50 24.42 50 37 C33.5 37 17 37 0 37 C0 24.79 0 12.58 0 0 Z " fill="#684594" transform="translate(207,640)"/>
<path d="M0 0 C16.5 0 33 0 50 0 C51.98 5.73375 53.96 11.4675 56 17.375 C56.62648437 19.18403809 57.25296875 20.99307617 57.8984375 22.85693359 C58.39086854 24.28735108 58.88307176 25.71784702 59.375 27.1484375 C59.63410156 27.89391846 59.89320313 28.63939941 60.16015625 29.4074707 C62 34.7718564 62 34.7718564 62 37 C60.02 37 58.04 37 56 37 C54.42767239 32.3571477 52.86125505 27.71235967 51.30029297 23.06567383 C50.76838764 21.4850485 50.23486836 19.90496535 49.69970703 18.32543945 C48.93097263 16.05560495 48.16805428 13.78388706 47.40625 11.51171875 C47.16563843 10.80536789 46.92502686 10.09901703 46.67712402 9.3712616 C45.70411908 6.45324788 45 4.0986998 45 1 C30.15 1 15.3 1 0 1 C0 0.67 0 0.34 0 0 Z " fill="#8B2E83" transform="translate(106,716)"/>
<path d="M0 0 C4.17049359 1.63548768 7.10821038 3.57269378 10 7 C11.35698258 11.07094774 11.52387231 14.74353744 11 19 C8.80850458 23.38299083 6.59809038 26.20074724 2 28 C-2.98568644 28.67644992 -6.82699959 28.533182 -11.4375 26.4375 C-15.06355579 22.98832498 -16.88416249 19.81388625 -17.09375 14.72265625 C-16.75927845 9.69722114 -15.76651009 6.55725953 -12 3 C-8.00261746 -0.13308361 -5.02373423 -0.52881413 0 0 Z M-12 7 C-14.35242347 10.20785018 -14.4684209 13.09649252 -14 17 C-11.96006092 20.6578218 -10.49580738 22.66946174 -7 25 C-3.88321477 25.67085092 -1.11597346 25.68360642 2 25 C5.41939287 22.71345477 7.5266285 19.94485965 8.50390625 15.9296875 C8.71399665 12.36492782 8.09461942 10.1554462 6.25 7.125 C3.16344962 4.20992464 1.34062405 3.17486401 -2.875 2.625 C-6.87153796 3.10458455 -8.90459308 4.46739433 -12 7 Z " fill="#2F2657" transform="translate(208,375)"/>
<path d="M0 0 C4.02207349 2.16000243 6.32619171 3.76270154 8 8 C8.73003525 12.58377901 9.05740925 17.08865772 6.76171875 21.23828125 C3.75537739 24.84141494 1.56469489 26.64578515 -3.234375 27.30859375 C-8.16819827 27.56141389 -11.20807729 27.40485038 -15.0625 24.125 C-18.55143782 20.7263641 -19.17103408 18.55048474 -19.25 13.6875 C-19.13318958 6.23110176 -19.13318958 6.23110176 -16 3 C-10.79900574 -0.71841199 -6.16188201 -1.9987923 0 0 Z M-14.7421875 5.984375 C-17.13394173 9.81712402 -16.92697462 13.68849014 -16 18 C-14.20353146 20.93423195 -13.0558929 22.47205355 -10 24 C-5.36786507 24.55512815 -2.01827873 24.6364242 2 22.125 C5.47527821 18.43251691 5.41023124 15.40386525 5.33203125 10.484375 C5.14333326 7.75436256 5.14333326 7.75436256 3.0625 4.9375 C-3.29479187 0.91553984 -9.1920318 0.46003397 -14.7421875 5.984375 Z " fill="#2F2657" transform="translate(163,376)"/>
<path d="M0 0 C3.5 0.625 3.5 0.625 6.5 2.6875 C8.5 5.625 8.5 5.625 8.5 9.25 C7.04978355 14.14448052 7.04978355 14.14448052 4.5 15.625 C1.7703689 16.48948187 -0.63968163 16.89767627 -3.5 16.625 C-6.98304057 14.23040961 -8.2607855 12.77322958 -9.125 8.625 C-8.00794016 3.26311277 -5.32967295 0.95172731 0 0 Z " fill="#34285A" transform="translate(157.5,554.375)"/>
<path d="M0 0 C2.5 1.5 2.5 1.5 4 4 C4.79669284 8.04985528 4.64099302 10.97441116 2.4375 14.5 C-0.94888329 16.58392818 -3.09385318 16.55802097 -7 16 C-9.36497439 14.13291495 -10.66030715 12.67938569 -12 10 C-12.38080215 6.49662019 -12.40245078 4.63721374 -10.5 1.625 C-6.98484748 -0.65984914 -4.07957703 -0.80253974 0 0 Z " fill="#312658" transform="translate(209,555)"/>
<path d="M0 0 C1.90625 0.41015625 1.90625 0.41015625 4.40625 1.91015625 C6.51761591 5.42909943 6.84862143 8.41122356 5.90625 12.41015625 C3.36392292 15.40112929 1.7487803 16.25218182 -2.09375 16.97265625 C-6.19764613 16.20317573 -7.63334272 14.73894257 -10.09375 11.41015625 C-10.80335213 7.62561157 -10.37176176 5.94301212 -8.59375 2.53515625 C-5.55267495 -0.04975755 -3.89338955 -0.28328767 0 0 Z " fill="#322658" transform="translate(183.09375,554.58984375)"/>
<path d="M0 0 C1.98 0.99 3.96 1.98 6 3 C6.57301844 9.87622128 4.74562466 14.37485769 0.59765625 19.8515625 C-7.10450346 28.4011481 -19.03591655 32.49812861 -30 35 C-32.87890625 35.1015625 -32.87890625 35.1015625 -35 35 C-31.82653953 32.88435969 -29.05266949 31.94050587 -25.4375 30.75 C-16.47513362 27.6557253 -8.44898988 24.00320388 -3 16 C-1.29450666 12.35588832 -0.66436347 9.19036139 -0.375 5.1875 C-0.30023438 4.21167969 -0.22546875 3.23585938 -0.1484375 2.23046875 C-0.09945312 1.49441406 -0.05046875 0.75835937 0 0 Z " fill="#CBC1C6" transform="translate(250,498)"/>
<path d="M0 0 C1.98 0 3.96 0 6 0 C6 15.51 6 31.02 6 47 C5.67 47 5.34 47 5 47 C5 31.82 5 16.64 5 1 C3.68 1 2.36 1 1 1 C1 16.18 1 31.36 1 47 C-0.32 47 -1.64 47 -3 47 C-2.7383775 41.109876 -2.47172259 35.22000925 -2.20043945 29.33032227 C-2.10889185 27.3274551 -2.01871007 25.32452502 -1.92993164 23.3215332 C-1.80194977 20.43943866 -1.66902798 17.55760748 -1.53515625 14.67578125 C-1.49656998 13.78288895 -1.4579837 12.88999664 -1.41822815 11.970047 C-1.22411012 7.88769852 -0.98135576 3.98653312 0 0 Z " fill="#533886" transform="translate(274,463)"/>
<path d="M0 0 C1.32 0 2.64 0 4 0 C4 12.21 4 24.42 4 37 C2.68 37 1.36 37 0 37 C0 24.79 0 12.58 0 0 Z " fill="#6C3C9F" transform="translate(151,640)"/>
<path d="M0 0 C0.33 0 0.66 0 1 0 C1 7.59 1 15.18 1 23 C9.91 23 18.82 23 28 23 C28 15.41 28 7.82 28 0 C29.32 0 30.64 0 32 0 C32 7.92 32 15.84 32 24 C21.44 24 10.88 24 0 24 C0 16.08 0 8.16 0 0 Z " fill="#AB68A1" transform="translate(216,680)"/>
<path d="M0 0 C7.80592007 0.49561397 15.42368396 1.76508886 20.9375 7.8125 C25.16479847 14.34559763 25.27282588 20.46697439 25 28 C23.02 27.34 21.04 26.68 19 26 C18.97421875 25.21496094 18.9484375 24.42992187 18.921875 23.62109375 C18.44463419 14.58111845 18.44463419 14.58111845 14 7 C10.79138504 5.00329119 7.46898069 3.48432347 4 2 C2.66217764 1.34238799 1.32713257 0.67892662 0 0 Z " fill="#C8BEC4" transform="translate(231,470)"/>
<path d="M0 0 C1.98 0 3.96 0 6 0 C6 7.92 6 15.84 6 24 C4.02 24 2.04 24 0 24 C0 16.08 0 8.16 0 0 Z " fill="#8E2682" transform="translate(229,613)"/>
<path d="M0 0 C0.66 0 1.32 0 2 0 C3.01074242 10.07517968 3.30946878 20.13494788 3.5625 30.25 C3.60581035 31.88151866 3.64942804 33.51302919 3.69335938 35.14453125 C3.79910976 39.09626957 3.90072352 43.04809396 4 47 C2.68 47 1.36 47 0 47 C0 31.49 0 15.98 0 0 Z " fill="#593991" transform="translate(83,463)"/>
<path d="M0 0 C4.29574113 0.25269065 6.47518229 0.5568206 9.8125 3.375 C13.70474535 8.04569442 14.4462053 10.56079148 14.31640625 16.48828125 C13.84903033 20.19843821 12.51586817 22.28014251 10 25 C7.25 26.375 7.25 26.375 5 27 C5 25.02 5 23.04 5 21 C5.66 21 6.32 21 7 21 C8.46734007 16.41456229 8.55064973 11.86373755 7.1875 7.25 C5.33741102 3.74456825 3.29117621 2.19411747 0 0 Z " fill="#B06AA4" transform="translate(78,604)"/>
<path d="M0 0 C5.02898754 1.43685358 6.95677502 3.94236669 10 8 C11.60608952 11.21217903 11.48016287 14.51557486 11 18 C9.12627113 21.42440103 7.04104475 24.51187247 4 27 C3.34 27 2.68 27 2 27 C1.62204724 21.45669291 1.62204724 21.45669291 3.5 19.1875 C5.55485576 16.19083535 5.53177021 13.83028227 5.4375 10.25390625 C4.71099935 6.51113058 2.62426136 4.68986789 0 2 C0 1.34 0 0.68 0 0 Z " fill="#AE69A4" transform="translate(289,604)"/>
<path d="M0 0 C1.65 0 3.3 0 5 0 C5 7.92 5 15.84 5 24 C3.35 24 1.7 24 0 24 C0 16.08 0 8.16 0 0 Z " fill="#A32589" transform="translate(128,613)"/>
<path d="M0 0 C0.66 0 1.32 0 2 0 C2 36.3 2 72.6 2 110 C1.67 110 1.34 110 1 110 C0.99576806 109.45646976 0.99153612 108.91293951 0.98717594 108.35293865 C0.88391098 95.13303844 0.77521745 81.91319248 0.66066074 68.69338512 C0.60542691 62.30040923 0.5520061 55.90742876 0.50268555 49.5144043 C0.45504889 43.3482031 0.40270622 37.18205838 0.34705925 31.01592445 C0.32663255 28.65994988 0.30792 26.30395982 0.29092598 23.94795799 C0.26688906 20.65559652 0.23683333 17.36334214 0.20532227 14.07104492 C0.1995668 13.09065247 0.19381134 12.11026001 0.18788147 11.10015869 C0.17809265 10.20413437 0.16830383 9.30811005 0.15821838 8.38493347 C0.15176583 7.6060184 0.14531328 6.82710333 0.1386652 6.02458477 C0.07094158 3.79505048 0.07094158 3.79505048 -1 1 C-0.67 0.67 -0.34 0.34 0 0 Z " fill="#A22589" transform="translate(76,490)"/>
<path d="M0 0 C4.65240805 0.11149562 8.06990876 0.41157493 12.0625 2.9375 C14.82203335 7.29934304 14.8750148 10.97279234 14 16 C12.4375 19.0625 12.4375 19.0625 10 21 C6.25 21.8125 6.25 21.8125 3 22 C3.639375 21.21625 4.27875 20.4325 4.9375 19.625 C7.79526352 15.98784643 8.39801174 13.72339415 8.35546875 9.03515625 C7.75652512 5.60603941 5.63547564 4.08386446 3 2 C2.01 1.34 1.02 0.68 0 0 Z " fill="#CAC0C5" transform="translate(154,378)"/>
<path d="M0 0 C5.2953712 -0.50432107 7.86704506 0.71242221 12 4 C14.0999841 7.14997614 14.54279882 9.0991884 14.4453125 12.859375 C13.61487398 16.85130756 11.2382389 19.61508081 8 22 C4.625 22.4375 4.625 22.4375 2 22 C2.804375 21.236875 3.60875 20.47375 4.4375 19.6875 C7.45239033 16.52554184 7.89788019 14.91907825 8.375 10.625 C7.90102478 6.04323951 6.50784026 4.85521882 3 2 C2.01 1.34 1.02 0.68 0 0 Z " fill="#CBC1C6" transform="translate(202,378)"/>
<path d="M0 0 C6.72952129 -0.64090679 10.56898171 0.10705468 16.046875 4.1484375 C19.02705797 6.97365096 20.85890735 10.05804358 22 14 C22 15.32 22 16.64 22 18 C10.45 18 -1.1 18 -13 18 C-13 16.35 -13 14.7 -13 13 C-12.67 14.32 -12.34 15.64 -12 17 C-2.1 17 7.8 17 18 17 C14.72131148 8.64851382 14.72131148 8.64851382 9 3 C6.03214227 2.05068524 3.08065263 1.44968132 0 1 C0 0.67 0 0.34 0 0 Z " fill="#995F97" transform="translate(177,327)"/>
<path d="M0 0 C1.5 1.25 1.5 1.25 3 3 C3 4.32 3 5.64 3 7 C2.34 7 1.68 7 1 7 C0.74307373 8.01368652 0.74307373 8.01368652 0.48095703 9.04785156 C-0.29963521 12.11645929 -1.08723829 15.18322533 -1.875 18.25 C-2.14441406 19.31347656 -2.41382813 20.37695312 -2.69140625 21.47265625 C-2.95566406 22.49746094 -3.21992188 23.52226562 -3.4921875 24.578125 C-3.85352783 25.99206543 -3.85352783 25.99206543 -4.22216797 27.43457031 C-4.93959528 29.8007744 -5.81909252 31.83426025 -7 34 C-8.72701168 31.41846919 -9.03243343 30.24380775 -8.61621094 27.11499023 C-8.32520508 26.02387939 -8.03419922 24.93276855 -7.734375 23.80859375 C-7.42113281 22.61685547 -7.10789063 21.42511719 -6.78515625 20.19726562 C-6.44355469 18.95654297 -6.10195312 17.71582031 -5.75 16.4375 C-5.42386719 15.19291016 -5.09773437 13.94832031 -4.76171875 12.66601562 C-2.29464992 3.44197488 -2.29464992 3.44197488 0 0 Z " fill="#3A325E" transform="translate(171,480)"/>
<path d="M0 0 C3.0625 0.1875 3.0625 0.1875 5.0625 2.1875 C5.375 5.1875 5.375 5.1875 5.0625 8.1875 C2.0625 10.1875 2.0625 10.1875 -0.5 9.9375 C-2.9375 9.1875 -2.9375 9.1875 -4.9375 7.1875 C-4.23164336 0.2701049 -4.23164336 0.2701049 0 0 Z " fill="#70439D" transform="translate(204.9375,557.8125)"/>
<path d="M0 0 C2.5625 0.375 2.5625 0.375 4.5 2.0625 C5.5625 4.375 5.5625 4.375 5.125 7.0625 C3.5625 9.375 3.5625 9.375 0.4375 10.1875 C-0.985625 10.2803125 -0.985625 10.2803125 -2.4375 10.375 C-4 8.625 -4 8.625 -5.4375 6.375 C-5.10786279 2.63911158 -3.8741796 0.59602763 0 0 Z " fill="#6B4199" transform="translate(157.4375,557.625)"/>
<path d="M0 0 C2.5 0.25 2.5 0.25 4.5 2.25 C4.8125 5.25 4.8125 5.25 4.5 8.25 C1.5 10.25 1.5 10.25 -1.0625 10 C-3.5 9.25 -3.5 9.25 -5.5 7.25 C-5.08994391 3.14943907 -4.53376372 0.45337637 0 0 Z " fill="#8C2C83" transform="translate(181.5,557.75)"/>
<path d="M0 0 C0.99 0 1.98 0 3 0 C3 7.92 3 15.84 3 24 C2.01 24 1.02 24 0 24 C0 16.08 0 8.16 0 0 Z " fill="#9B378A" transform="translate(229,613)"/>
<path d="M0 0 C0.99 0 1.98 0 3 0 C3 7.59 3 15.18 3 23 C2.01 23 1.02 23 0 23 C0 15.41 0 7.82 0 0 Z " fill="#B66DA9" transform="translate(143,680)"/>
<path d="M0 0 C1.65 0 3.3 0 5 0 C5 4.29 5 8.58 5 13 C3.35 13 1.7 13 0 13 C0 8.71 0 4.42 0 0 Z " fill="#493380" transform="translate(200,652)"/>
<path d="M0 0 C1.65 0 3.3 0 5 0 C5 4.29 5 8.58 5 13 C3.35 13 1.7 13 0 13 C0 8.71 0 4.42 0 0 Z " fill="#46307F" transform="translate(158,652)"/>
<path d="M0 0 C1.32 0 2.64 0 4 0 C4 5.28 4 10.56 4 16 C2.68 16 1.36 16 0 16 C0 10.72 0 5.44 0 0 Z " fill="#462987" transform="translate(252,594)"/>
<path d="M0 0 C1.32 0 2.64 0 4 0 C4 5.28 4 10.56 4 16 C2.68 16 1.36 16 0 16 C0 10.72 0 5.44 0 0 Z " fill="#452986" transform="translate(151,594)"/>
<path d="M0 0 C1.32 0 2.64 0 4 0 C4 4.29 4 8.58 4 13 C2.68 13 1.36 13 0 13 C0 8.71 0 4.42 0 0 Z " fill="#462C84" transform="translate(260,652)"/>
<path d="M0 0 C1.32 0 2.64 0 4 0 C4 4.29 4 8.58 4 13 C2.68 13 1.36 13 0 13 C0 8.71 0 4.42 0 0 Z " fill="#462C84" transform="translate(99,652)"/>
<path d="M0 0 C2.42999536 2.27364177 3.42805835 3.68273845 4 7 C3.01 7.33 2.02 7.66 1 8 C1 7.34 1 6.68 1 6 C0.38125 6.61875 -0.2375 7.2375 -0.875 7.875 C-5 12 -5 12 -8 13 C-6.40956621 7.91061189 -3.2553049 4.12543357 0 0 Z " fill="#403963" transform="translate(145,486)"/>
<path d="M0 0 C0.33 0 0.66 0 1 0 C1.17835515 4.54805635 0.99785435 7.8794254 -1 12 C-4 11 -4 11 -5.6875 8.125 C-7 5 -7 5 -7 2 C-4 3 -4 3 -3 5 C-2.525625 4.175 -2.05125 3.35 -1.5625 2.5 C-1.046875 1.675 -0.53125 0.85 0 0 Z " fill="#342B5A" transform="translate(163,511)"/>
<path d="M0 0 C0.66 0.33 1.32 0.66 2 1 C1.690625 2.11375 1.38125 3.2275 1.0625 4.375 C-0.15800664 9.20509012 -0.61399637 14.04290069 -1 19 C-1.99 18.34 -2.98 17.68 -4 17 C-3.91227545 15.10333474 -3.80408699 13.20761007 -3.6875 11.3125 C-3.62949219 10.25675781 -3.57148438 9.20101563 -3.51171875 8.11328125 C-2.96217936 4.76990036 -1.91325982 2.76473738 0 0 Z " fill="#473F67" transform="translate(233,488)"/>
<path d="M0 0 C0.33 0.66 0.66 1.32 1 2 C1.66 2 2.32 2 3 2 C2.71572583 3.58467728 2.42225182 5.1677057 2.125 6.75 C1.96257812 7.63171875 1.80015625 8.5134375 1.6328125 9.421875 C1.03203736 11.86947744 0.22002883 13.80599857 -1 16 C-2.79570284 13.33874255 -3.03345719 12.21888938 -2.5390625 8.984375 C-2.23742187 7.91703125 -1.93578125 6.8496875 -1.625 5.75 C-1.32851562 4.67234375 -1.03203125 3.5946875 -0.7265625 2.484375 C-0.48679688 1.66453125 -0.24703125 0.8446875 0 0 Z " fill="#4D466B" transform="translate(165,498)"/>
<path d="M0 0 C0.99 0.66 1.98 1.32 3 2 C2.67 3.65 2.34 5.3 2 7 C0.68 7.33 -0.64 7.66 -2 8 C-2.6875 5.6875 -2.6875 5.6875 -3 3 C-1.5625 1.1875 -1.5625 1.1875 0 0 Z " fill="#B0298D" transform="translate(180,559)"/>
<path d="M0 0 C1.65 0 3.3 0 5 0 C5 1.98 5 3.96 5 6 C3.35 6 1.7 6 0 6 C0 4.02 0 2.04 0 0 Z " fill="#462987" transform="translate(251,707)"/>
<path d="M0 0 C1.65 0 3.3 0 5 0 C5 1.98 5 3.96 5 6 C3.35 6 1.7 6 0 6 C0 4.02 0 2.04 0 0 Z " fill="#452986" transform="translate(150,707)"/>
<path d="M0 0 C0.33 0 0.66 0 1 0 C1.14285714 7.42857143 1.14285714 7.42857143 0 11 C-0.99 10.67 -1.98 10.34 -3 10 C-3.33 8.35 -3.66 6.7 -4 5 C-3.01 5 -2.02 5 -1 5 C-0.67 3.35 -0.34 1.7 0 0 Z " fill="#2C2354" transform="translate(230,504)"/>
<path d="M0 0 C0.66 0.66 1.32 1.32 2 2 C1.625 4.625 1.625 4.625 1 7 C-0.32 7 -1.64 7 -3 7 C-2.25 2.25 -2.25 2.25 0 0 Z " fill="#7A47A5" transform="translate(156,559)"/>
<path d="M0 0 C0.99 0.33 1.98 0.66 3 1 C3 1.66 3 2.32 3 3 C3.99 2.67 4.98 2.34 6 2 C5.67 3.98 5.34 5.96 5 8 C4.01 8 3.02 8 2 8 C0.74335022 5.09399739 0 3.20395416 0 0 Z " fill="#322958" transform="translate(180,505)"/>
<path d="M0 0 C1.32 0 2.64 0 4 0 C4 2.31 4 4.62 4 7 C2.68 7 1.36 7 0 7 C0 4.69 0 2.38 0 0 Z " fill="#6A3D9A" transform="translate(220,421)"/>
<path d="M0 0 C3 1 3 1 4.1875 2.8125 C5 5 5 5 5 9 C4.34 9 3.68 9 3 9 C0 3.375 0 3.375 0 0 Z " fill="#372E5C" transform="translate(147,493)"/>
<path d="M0 0 C1.32 0 2.64 0 4 0 C4 1.98 4 3.96 4 6 C2.68 6 1.36 6 0 6 C0 4.02 0 2.04 0 0 Z " fill="#6E3CA1" transform="translate(220,431)"/>
<path d="M0 0 C1.32 0 2.64 0 4 0 C4 1.98 4 3.96 4 6 C2.68 6 1.36 6 0 6 C0 4.02 0 2.04 0 0 Z " fill="#452987" transform="translate(199,348)"/>
</svg>
